<svg width="195" height="72" viewBox="0 0 195 72" fill="none" xmlns="http://www.w3.org/2000/svg">
<mask id="path-1-outside-1_85_25" maskUnits="userSpaceOnUse" x="60.8432" y="34.1818" width="118.901" height="33.6089" fill="black">
<rect fill="white" x="60.8432" y="34.1818" width="118.901" height="33.6089"/>
<path d="M85.6619 63.1228H76.8779C73.8779 63.1228 71.8609 62.5627 70.827 61.4424C69.817 60.3221 69.7593 58.5968 70.6538 56.2666L74.666 45.8142C75.5605 43.484 76.9428 41.7588 78.8128 40.6385C80.7155 39.4958 83.1668 38.9244 86.1668 38.9244H94.9508C95.4068 38.9244 95.6921 39.0252 95.8067 39.2269C95.9539 39.4061 95.9458 39.7086 95.7824 40.1343L94.2213 44.201C94.0579 44.6267 93.8295 44.9404 93.5361 45.142C93.2753 45.3213 92.9169 45.4109 92.4609 45.4109H85.2249C84.4809 45.4109 83.873 45.5566 83.4011 45.8478C82.9379 46.1167 82.5988 46.5312 82.3838 47.0914L79.3133 55.0903C79.0983 55.6504 79.1192 56.0649 79.376 56.3338C79.6413 56.5803 80.146 56.7035 80.89 56.7035H88.126C88.582 56.7035 88.8673 56.8043 88.9819 57.006C89.1291 57.1852 89.121 57.4877 88.9576 57.9134L87.4223 61.9129C87.2589 62.3386 87.0305 62.6523 86.7371 62.8539C86.4763 63.0332 86.1179 63.1228 85.6619 63.1228ZM97.8994 63.1228H92.3194C91.8634 63.1228 91.5618 63.0332 91.4146 62.8539C91.3 62.6523 91.3244 62.3386 91.4878 61.9129L99.8478 40.1343C100.011 39.7086 100.223 39.4061 100.484 39.2269C100.778 39.0252 101.152 38.9244 101.608 38.9244H107.188C107.644 38.9244 107.93 39.0252 108.044 39.2269C108.191 39.4061 108.183 39.7086 108.02 40.1343L105.22 47.4275H111.232L114.032 40.1343C114.195 39.7086 114.407 39.4061 114.668 39.2269C114.962 39.0252 115.336 38.9244 115.792 38.9244H121.372C121.828 38.9244 122.114 39.0252 122.228 39.2269C122.375 39.4061 122.367 39.7086 122.204 40.1343L113.844 61.9129C113.68 62.3386 113.452 62.6523 113.159 62.8539C112.898 63.0332 112.539 63.1228 112.083 63.1228H106.503C106.047 63.1228 105.746 63.0332 105.599 62.8539C105.484 62.6523 105.508 62.3386 105.672 61.9129L108.536 54.4517H102.524L99.6598 61.9129C99.4964 62.3386 99.268 62.6523 98.9746 62.8539C98.7138 63.0332 98.3554 63.1228 97.8994 63.1228ZM134.315 45.9823L130.662 51.0908H136.314L136.583 45.9823C136.565 45.7806 136.513 45.635 136.427 45.5454C136.366 45.4557 136.263 45.4109 136.119 45.4109H135.219C135.075 45.4109 134.926 45.4557 134.771 45.5454C134.641 45.635 134.489 45.7806 134.315 45.9823ZM126.148 61.9129C125.985 62.3386 125.756 62.6523 125.463 62.8539C125.202 63.0332 124.844 63.1228 124.388 63.1228H119.096C118.64 63.1228 118.338 63.0332 118.191 62.8539C118.076 62.6523 118.101 62.3386 118.264 61.9129L121.67 53.0401C121.928 52.368 122.333 51.595 122.884 50.7211C123.46 49.8473 124.211 48.8278 125.138 47.6627L131.199 40.0335C131.489 39.6526 131.813 39.3725 132.169 39.1933C132.55 39.014 132.981 38.9244 133.461 38.9244H143.145C143.601 38.9244 143.938 39.014 144.157 39.1933C144.401 39.3725 144.521 39.6526 144.519 40.0335L144.722 47.6627C144.755 48.8278 144.712 49.8473 144.592 50.7211C144.497 51.595 144.32 52.368 144.062 53.0401L140.656 61.9129C140.493 62.3386 140.264 62.6523 139.971 62.8539C139.71 63.0332 139.352 63.1228 138.896 63.1228H133.46C132.98 63.1228 132.654 63.0332 132.483 62.8539C132.344 62.6523 132.357 62.3386 132.52 61.9129L134.326 57.2076H127.954L126.148 61.9129ZM155.435 63.1228H149.603C149.147 63.1228 148.846 63.0332 148.698 62.8539C148.584 62.6523 148.608 62.3386 148.772 61.9129L155.106 45.4109H149.814C149.358 45.4109 149.057 45.3213 148.909 45.142C148.795 44.9404 148.819 44.6267 148.983 44.201L150.544 40.1343C150.707 39.7086 150.919 39.4061 151.18 39.2269C151.473 39.0252 151.848 38.9244 152.304 38.9244H171.312C171.768 38.9244 172.053 39.0252 172.168 39.2269C172.315 39.4061 172.307 39.7086 172.144 40.1343L170.583 44.201C170.419 44.6267 170.191 44.9404 169.897 45.142C169.637 45.3213 169.278 45.4109 168.822 45.4109H163.53L157.196 61.9129C157.032 62.3386 156.804 62.6523 156.51 62.8539C156.25 63.0332 155.891 63.1228 155.435 63.1228Z"/>
</mask>
<path d="M85.6619 63.1228H76.8779C73.8779 63.1228 71.8609 62.5627 70.827 61.4424C69.817 60.3221 69.7593 58.5968 70.6538 56.2666L74.666 45.8142C75.5605 43.484 76.9428 41.7588 78.8128 40.6385C80.7155 39.4958 83.1668 38.9244 86.1668 38.9244H94.9508C95.4068 38.9244 95.6921 39.0252 95.8067 39.2269C95.9539 39.4061 95.9458 39.7086 95.7824 40.1343L94.2213 44.201C94.0579 44.6267 93.8295 44.9404 93.5361 45.142C93.2753 45.3213 92.9169 45.4109 92.4609 45.4109H85.2249C84.4809 45.4109 83.873 45.5566 83.4011 45.8478C82.9379 46.1167 82.5988 46.5312 82.3838 47.0914L79.3133 55.0903C79.0983 55.6504 79.1192 56.0649 79.376 56.3338C79.6413 56.5803 80.146 56.7035 80.89 56.7035H88.126C88.582 56.7035 88.8673 56.8043 88.9819 57.006C89.1291 57.1852 89.121 57.4877 88.9576 57.9134L87.4223 61.9129C87.2589 62.3386 87.0305 62.6523 86.7371 62.8539C86.4763 63.0332 86.1179 63.1228 85.6619 63.1228ZM97.8994 63.1228H92.3194C91.8634 63.1228 91.5618 63.0332 91.4146 62.8539C91.3 62.6523 91.3244 62.3386 91.4878 61.9129L99.8478 40.1343C100.011 39.7086 100.223 39.4061 100.484 39.2269C100.778 39.0252 101.152 38.9244 101.608 38.9244H107.188C107.644 38.9244 107.93 39.0252 108.044 39.2269C108.191 39.4061 108.183 39.7086 108.02 40.1343L105.22 47.4275H111.232L114.032 40.1343C114.195 39.7086 114.407 39.4061 114.668 39.2269C114.962 39.0252 115.336 38.9244 115.792 38.9244H121.372C121.828 38.9244 122.114 39.0252 122.228 39.2269C122.375 39.4061 122.367 39.7086 122.204 40.1343L113.844 61.9129C113.68 62.3386 113.452 62.6523 113.159 62.8539C112.898 63.0332 112.539 63.1228 112.083 63.1228H106.503C106.047 63.1228 105.746 63.0332 105.599 62.8539C105.484 62.6523 105.508 62.3386 105.672 61.9129L108.536 54.4517H102.524L99.6598 61.9129C99.4964 62.3386 99.268 62.6523 98.9746 62.8539C98.7138 63.0332 98.3554 63.1228 97.8994 63.1228ZM134.315 45.9823L130.662 51.0908H136.314L136.583 45.9823C136.565 45.7806 136.513 45.635 136.427 45.5454C136.366 45.4557 136.263 45.4109 136.119 45.4109H135.219C135.075 45.4109 134.926 45.4557 134.771 45.5454C134.641 45.635 134.489 45.7806 134.315 45.9823ZM126.148 61.9129C125.985 62.3386 125.756 62.6523 125.463 62.8539C125.202 63.0332 124.844 63.1228 124.388 63.1228H119.096C118.64 63.1228 118.338 63.0332 118.191 62.8539C118.076 62.6523 118.101 62.3386 118.264 61.9129L121.67 53.0401C121.928 52.368 122.333 51.595 122.884 50.7211C123.46 49.8473 124.211 48.8278 125.138 47.6627L131.199 40.0335C131.489 39.6526 131.813 39.3725 132.169 39.1933C132.55 39.014 132.981 38.9244 133.461 38.9244H143.145C143.601 38.9244 143.938 39.014 144.157 39.1933C144.401 39.3725 144.521 39.6526 144.519 40.0335L144.722 47.6627C144.755 48.8278 144.712 49.8473 144.592 50.7211C144.497 51.595 144.32 52.368 144.062 53.0401L140.656 61.9129C140.493 62.3386 140.264 62.6523 139.971 62.8539C139.71 63.0332 139.352 63.1228 138.896 63.1228H133.46C132.98 63.1228 132.654 63.0332 132.483 62.8539C132.344 62.6523 132.357 62.3386 132.52 61.9129L134.326 57.2076H127.954L126.148 61.9129ZM155.435 63.1228H149.603C149.147 63.1228 148.846 63.0332 148.698 62.8539C148.584 62.6523 148.608 62.3386 148.772 61.9129L155.106 45.4109H149.814C149.358 45.4109 149.057 45.3213 148.909 45.142C148.795 44.9404 148.819 44.6267 148.983 44.201L150.544 40.1343C150.707 39.7086 150.919 39.4061 151.18 39.2269C151.473 39.0252 151.848 38.9244 152.304 38.9244H171.312C171.768 38.9244 172.053 39.0252 172.168 39.2269C172.315 39.4061 172.307 39.7086 172.144 40.1343L170.583 44.201C170.419 44.6267 170.191 44.9404 169.897 45.142C169.637 45.3213 169.278 45.4109 168.822 45.4109H163.53L157.196 61.9129C157.032 62.3386 156.804 62.6523 156.51 62.8539C156.25 63.0332 155.891 63.1228 155.435 63.1228Z" fill="#8EC8F6"/>
<path d="M70.827 61.4424L66.2495 65.0283L66.2604 65.0405L66.2715 65.0525L70.827 61.4424ZM78.8128 40.6385L80.6372 44.2244L80.6453 44.2196L78.8128 40.6385ZM95.8067 39.2269L90.8792 42.3281L90.9958 42.5333L91.1456 42.7157L95.8067 39.2269ZM83.4011 45.8478L85.1254 49.4929L85.2243 49.4355L85.3217 49.3753L83.4011 45.8478ZM79.376 56.3338L74.8533 59.9788L74.9118 60.0401L74.9742 60.098L79.376 56.3338ZM88.9819 57.006L84.0544 60.1072L84.1711 60.3124L84.3209 60.4948L88.9819 57.006ZM86.7371 62.8539L89.0056 66.1546L89.0056 66.1546L86.7371 62.8539ZM87.4537 58.4549H78.6697L75.0861 67.7907H83.8701L87.4537 58.4549ZM78.6697 58.4549C76.1903 58.4549 75.5085 57.9689 75.3824 57.8322L66.2715 65.0525C68.2133 67.1564 71.5655 67.7907 75.0861 67.7907L78.6697 58.4549ZM75.4044 57.8564C75.3815 57.831 75.3413 57.785 75.3356 57.6136C75.3288 57.4108 75.3738 56.9959 75.6538 56.2666H65.6538C64.4153 59.4929 64.1951 62.7495 66.2495 65.0283L75.4044 57.8564ZM75.6538 56.2666L79.666 45.8142H69.666L65.6538 56.2666H75.6538ZM79.666 45.8142C79.946 45.0849 80.2195 44.67 80.382 44.4672C80.5193 44.2958 80.5948 44.2498 80.6372 44.2244L76.9884 37.0525C73.1845 39.3313 70.9045 42.5879 69.666 45.8142H79.666ZM80.6453 44.2196C80.873 44.0828 81.9133 43.5923 84.375 43.5923L87.9586 34.2565C84.4203 34.2565 80.5579 34.9087 76.9804 37.0573L80.6453 44.2196ZM84.375 43.5923H93.159L96.7426 34.2565H87.9586L84.375 43.5923ZM93.159 43.5923C93.0006 43.5923 91.5887 43.5766 90.8792 42.3281L100.734 36.1257C99.7955 34.4739 97.813 34.2565 96.7426 34.2565L93.159 43.5923ZM91.1456 42.7157C90.2343 41.6059 90.7256 40.2822 90.7824 40.1343H100.782C101.166 39.135 101.673 37.2063 100.468 35.7381L91.1456 42.7157ZM90.7824 40.1343L89.2213 44.201H99.2213L100.782 40.1343H90.7824ZM89.2213 44.201C89.3012 43.9927 89.7774 42.8655 91.2676 41.8413L95.8046 48.4428C97.8815 47.0153 98.8145 45.2607 99.2213 44.201H89.2213ZM91.2676 41.8413C92.1102 41.2622 92.8774 40.9911 93.3692 40.8681C93.8427 40.7497 94.1558 40.743 94.2527 40.743L90.669 50.0788C91.6021 50.0788 93.6376 49.9321 95.8046 48.4428L91.2676 41.8413ZM94.2527 40.743H87.0167L83.433 50.0788H90.669L94.2527 40.743ZM87.0167 40.743C85.7133 40.743 83.6554 40.9777 81.4806 42.3204L85.3217 49.3753C84.6975 49.7607 84.1641 49.936 83.8464 50.0121C83.5436 50.0847 83.3924 50.0788 83.433 50.0788L87.0167 40.743ZM81.6769 42.2028C79.2512 43.6108 77.9657 45.5754 77.3838 47.0914H87.3838C87.3167 47.2662 87.1452 47.6431 86.7599 48.1141C86.3482 48.6174 85.7884 49.108 85.1254 49.4929L81.6769 42.2028ZM77.3838 47.0914L74.3133 55.0903H84.3133L87.3838 47.0914H77.3838ZM74.3133 55.0903C73.7314 56.6062 73.5085 58.5708 74.8533 59.9788L83.8986 52.6888C84.2662 53.0736 84.4492 53.5643 84.4746 54.0675C84.4983 54.5385 84.3804 54.9155 84.3133 55.0903H74.3133ZM74.9742 60.098C76.1695 61.2081 77.9343 61.3714 79.0982 61.3714L82.6819 52.0356C82.5879 52.0356 82.6749 52.0262 82.8591 52.0712C83.0442 52.1164 83.4232 52.2403 83.7777 52.5696L74.9742 60.098ZM79.0982 61.3714H86.3342L89.9179 52.0356H82.6819L79.0982 61.3714ZM86.3342 61.3714C86.1758 61.3714 84.7639 61.3557 84.0544 60.1072L93.9094 53.9048C92.9707 52.253 90.9883 52.0356 89.9179 52.0356L86.3342 61.3714ZM84.3209 60.4948C83.4095 59.385 83.9008 58.0613 83.9576 57.9134H93.9576C94.3412 56.9141 94.8487 54.9854 93.643 53.5172L84.3209 60.4948ZM83.9576 57.9134L82.4223 61.9129H92.4223L93.9576 57.9134H83.9576ZM82.4223 61.9129C82.5023 61.7046 82.9785 60.5774 84.4686 59.5532L89.0056 66.1546C91.0826 64.7272 92.0156 62.9726 92.4223 61.9129H82.4223ZM84.4686 59.5532C85.3112 58.9741 86.0785 58.703 86.5703 58.58C87.0438 58.4616 87.3569 58.4549 87.4537 58.4549L83.8701 67.7907C84.8031 67.7907 86.8387 67.6439 89.0056 66.1546L84.4686 59.5532ZM91.4146 62.8539L86.4871 65.9551L86.6037 66.1603L86.7535 66.3428L91.4146 62.8539ZM100.484 39.2269L98.2156 35.9262L98.2156 35.9262L100.484 39.2269ZM108.044 39.2269L103.117 42.3281L103.233 42.5333L103.383 42.7157L108.044 39.2269ZM105.22 47.4275H100.22L98.4284 52.0954H103.428L105.22 47.4275ZM111.232 47.4275L109.44 52.0954H114.44L116.232 47.4275H111.232ZM114.668 39.2269L112.4 35.9262L112.4 35.9262L114.668 39.2269ZM122.228 39.2269L117.301 42.3281L117.417 42.5333L117.567 42.7157L122.228 39.2269ZM113.159 62.8539L115.427 66.1546L115.427 66.1546L113.159 62.8539ZM105.599 62.8539L100.671 65.9551L100.788 66.1603L100.938 66.3428L105.599 62.8539ZM108.536 54.4517H113.536L115.328 49.7838H110.328L108.536 54.4517ZM102.524 54.4517L104.316 49.7838H99.3157L97.5239 54.4517H102.524ZM98.9746 62.8539L96.7061 59.5532L96.7061 59.5532L98.9746 62.8539ZM99.6912 58.4549H94.1112L90.5275 67.7907H96.1075L99.6912 58.4549ZM94.1112 58.4549C94.2064 58.4549 95.3252 58.4512 96.0756 59.3651L86.7535 66.3428C87.7984 67.6152 89.5204 67.7907 90.5275 67.7907L94.1112 58.4549ZM96.3421 59.7527C96.9263 60.7809 96.5219 61.8241 96.4878 61.9129H86.4878C86.1269 62.8531 85.6737 64.5237 86.4871 65.9551L96.3421 59.7527ZM96.4878 61.9129L104.848 40.1343H94.8478L86.4878 61.9129H96.4878ZM104.848 40.1343C104.813 40.2247 104.695 40.5147 104.414 40.9143C104.123 41.3293 103.595 41.9485 102.753 42.5276L98.2156 35.9262C96.0487 37.4155 95.1822 39.2632 94.8478 40.1343H104.848ZM102.753 42.5276C101.263 43.5517 100.04 43.5923 99.8164 43.5923L103.4 34.2565C102.265 34.2565 100.293 34.4987 98.2156 35.9262L102.753 42.5276ZM99.8164 43.5923H105.396L108.98 34.2565H103.4L99.8164 43.5923ZM105.396 43.5923C105.238 43.5923 103.826 43.5766 103.117 42.3281L112.972 36.1257C112.033 34.4739 110.051 34.2565 108.98 34.2565L105.396 43.5923ZM103.383 42.7157C102.472 41.6059 102.963 40.2822 103.02 40.1343H113.02C113.403 39.135 113.911 37.2063 112.705 35.7381L103.383 42.7157ZM103.02 40.1343L100.22 47.4275H110.22L113.02 40.1343H103.02ZM103.428 52.0954H109.44L113.024 42.7596H107.012L103.428 52.0954ZM116.232 47.4275L119.032 40.1343H109.032L106.232 47.4275H116.232ZM119.032 40.1343C118.997 40.2247 118.879 40.5147 118.598 40.9143C118.307 41.3293 117.779 41.9485 116.937 42.5276L112.4 35.9262C110.233 37.4155 109.366 39.2632 109.032 40.1343H119.032ZM116.937 42.5276C115.447 43.5517 114.224 43.5923 114 43.5923L117.584 34.2565C116.449 34.2565 114.477 34.4987 112.4 35.9262L116.937 42.5276ZM114 43.5923H119.58L123.164 34.2565H117.584L114 43.5923ZM119.58 43.5923C119.422 43.5923 118.01 43.5766 117.301 42.3281L127.156 36.1257C126.217 34.4739 124.235 34.2565 123.164 34.2565L119.58 43.5923ZM117.567 42.7157C116.656 41.6059 117.147 40.2822 117.204 40.1343H127.204C127.587 39.135 128.095 37.2063 126.889 35.7381L117.567 42.7157ZM117.204 40.1343L108.844 61.9129H118.844L127.204 40.1343H117.204ZM108.844 61.9129C108.924 61.7046 109.4 60.5774 110.89 59.5532L115.427 66.1546C117.504 64.7272 118.437 62.9726 118.844 61.9129H108.844ZM110.89 59.5532C111.733 58.9741 112.5 58.703 112.992 58.58C113.465 58.4616 113.778 58.4549 113.875 58.4549L110.292 67.7907C111.225 67.7907 113.26 67.6439 115.427 66.1546L110.89 59.5532ZM113.875 58.4549H108.295L104.712 67.7907H110.292L113.875 58.4549ZM108.295 58.4549C108.39 58.4549 109.509 58.4512 110.26 59.3651L100.938 66.3428C101.982 67.6152 103.704 67.7907 104.712 67.7907L108.295 58.4549ZM110.526 59.7528C111.11 60.7809 110.706 61.8241 110.672 61.9129H100.672C100.311 62.8531 99.8577 64.5237 100.671 65.9551L110.526 59.7528ZM110.672 61.9129L113.536 54.4517H103.536L100.672 61.9129H110.672ZM110.328 49.7838H104.316L100.732 59.1196H106.744L110.328 49.7838ZM97.5239 54.4517L94.6598 61.9129H104.66L107.524 54.4517H97.5239ZM94.6598 61.9129C94.7398 61.7046 95.2159 60.5774 96.7061 59.5532L101.243 66.1546C103.32 64.7272 104.253 62.9726 104.66 61.9129H94.6598ZM96.7061 59.5532C97.5487 58.9741 98.316 58.703 98.8077 58.58C99.2812 58.4616 99.5944 58.4549 99.6912 58.4549L96.1075 67.7907C97.0406 67.7907 99.0761 67.6439 101.243 66.1546L96.7061 59.5532ZM134.315 45.9823L130.474 44.0865L130.257 44.3391L130.068 44.6033L134.315 45.9823ZM130.662 51.0908L126.415 49.7119L122.091 55.7587H128.871L130.662 51.0908ZM136.314 51.0908L134.523 55.7587H141.302L141.621 49.7119L136.314 51.0908ZM136.583 45.9823L141.89 44.6033L141.903 44.3391L141.88 44.0865L136.583 45.9823ZM136.427 45.5454L131.625 48.846L131.75 49.0289L131.904 49.1904L136.427 45.5454ZM134.771 45.5454L133.047 41.9003L132.769 42.0618L132.503 42.2446L134.771 45.5454ZM125.463 62.8539L123.194 59.5532L123.194 59.5532L125.463 62.8539ZM118.191 62.8539L113.264 65.9551L113.38 66.1603L113.53 66.3428L118.191 62.8539ZM122.884 50.7211L118.486 49.5617L118.45 49.6165L118.415 49.6715L122.884 50.7211ZM125.138 47.6627L129.162 49.3384L129.166 49.3332L125.138 47.6627ZM131.199 40.0335L135.227 41.704L135.273 41.6458L135.318 41.5871L131.199 40.0335ZM132.169 39.1933L131.075 35.2178L130.981 35.2623L130.887 35.3093L132.169 39.1933ZM144.157 39.1933L139.893 43.0772L139.951 43.1243L140.011 43.1687L144.157 39.1933ZM144.519 40.0335L139.208 41.5871L139.207 41.6458L139.209 41.704L144.519 40.0335ZM144.722 47.6627L139.412 49.3332L139.412 49.3384L144.722 47.6627ZM144.592 50.7211L139.317 51.7707L139.31 51.8258L139.304 51.8805L144.592 50.7211ZM139.971 62.8539L142.239 66.1546L142.239 66.1546L139.971 62.8539ZM132.483 62.8539L127.68 66.1546L127.806 66.3374L127.96 66.499L132.483 62.8539ZM134.326 57.2076H139.326L141.118 52.5397H136.118L134.326 57.2076ZM127.954 57.2076L129.746 52.5397H124.746L122.954 57.2076H127.954ZM130.068 44.6033L126.415 49.7119L134.91 52.4698L138.563 47.3612L130.068 44.6033ZM128.871 55.7587H134.523L138.106 46.4229H132.454L128.871 55.7587ZM141.621 49.7119L141.89 44.6033L131.277 47.3612L131.008 52.4698L141.621 49.7119ZM141.88 44.0865C141.829 43.536 141.657 42.6411 140.95 41.9003L131.904 49.1904C131.622 48.8951 131.477 48.5947 131.4 48.3788C131.322 48.1619 131.296 47.9819 131.287 47.8781L141.88 44.0865ZM141.23 42.2447C140.527 41.2224 139.291 40.743 137.911 40.743L134.327 50.0788C133.835 50.0788 133.292 50.0005 132.783 49.7786C132.269 49.5544 131.885 49.2253 131.625 48.846L141.23 42.2447ZM137.911 40.743H137.011L133.427 50.0788H134.327L137.911 40.743ZM137.011 40.743C135.652 40.743 134.26 41.1963 133.047 41.9003L136.495 49.1904C135.591 49.7152 134.497 50.0788 133.427 50.0788L137.011 40.743ZM132.503 42.2446C131.5 42.9335 130.815 43.6905 130.474 44.0865L138.157 47.8781C138.124 47.9157 138.031 48.022 137.879 48.1682C137.735 48.3055 137.453 48.5619 137.04 48.8461L132.503 42.2446ZM121.148 61.9129C121.228 61.7046 121.704 60.5774 123.194 59.5532L127.731 66.1546C129.808 64.7272 130.741 62.9726 131.148 61.9129H121.148ZM123.194 59.5532C124.037 58.9741 124.804 58.703 125.296 58.58C125.77 58.4616 126.083 58.4549 126.18 58.4549L122.596 67.7907C123.529 67.7907 125.565 67.6439 127.731 66.1546L123.194 59.5532ZM126.18 58.4549H120.888L117.304 67.7907H122.596L126.18 58.4549ZM120.888 58.4549C120.983 58.4549 122.102 58.4512 122.852 59.3651L113.53 66.3428C114.575 67.6152 116.297 67.7907 117.304 67.7907L120.888 58.4549ZM123.118 59.7527C123.703 60.7809 123.298 61.8241 123.264 61.9129H113.264C112.903 62.8531 112.45 64.5237 113.264 65.9551L123.118 59.7527ZM123.264 61.9129L126.67 53.0401H116.67L113.264 61.9129H123.264ZM126.67 53.0401C126.756 52.816 126.952 52.407 127.353 51.7707L118.415 49.6715C117.714 50.7829 117.1 51.9199 116.67 53.0401H126.67ZM127.283 51.8805C127.708 51.2338 128.322 50.3936 129.162 49.3384L121.115 45.987C120.1 47.262 119.211 48.4608 118.486 49.5617L127.283 51.8805ZM129.166 49.3332L135.227 41.704L127.171 38.363L121.111 45.9922L129.166 49.3332ZM135.318 41.5871C135.066 41.9169 134.464 42.569 133.452 43.0772L130.887 35.3093C129.162 36.176 127.912 37.3883 127.08 38.4799L135.318 41.5871ZM133.264 43.1687C132.428 43.5623 131.833 43.5923 131.669 43.5923L135.253 34.2565C134.128 34.2565 132.673 34.4657 131.075 35.2178L133.264 43.1687ZM131.669 43.5923H141.353L144.937 34.2565H135.253L131.669 43.5923ZM141.353 43.5923C141.13 43.5923 140.469 43.5484 139.893 43.0772L148.422 35.3094C147.407 34.4797 146.071 34.2565 144.937 34.2565L141.353 43.5923ZM140.011 43.1687C139.363 42.6909 139.205 42.0232 139.208 41.5871L149.83 38.4799C149.837 37.282 149.439 36.0542 148.304 35.2178L140.011 43.1687ZM139.209 41.704L139.412 49.3332L150.032 45.9922L149.829 38.363L139.209 41.704ZM139.412 49.3384C139.441 50.3721 139.399 51.1741 139.317 51.7707L149.867 49.6715C150.025 48.5205 150.069 47.2835 150.032 45.987L139.412 49.3384ZM139.304 51.8805C139.237 52.4957 139.129 52.8662 139.062 53.0401H149.062C149.511 51.8698 149.757 50.6942 149.881 49.5617L139.304 51.8805ZM139.062 53.0401L135.656 61.9129H145.656L149.062 53.0401H139.062ZM135.656 61.9129C135.736 61.7046 136.212 60.5774 137.702 59.5532L142.239 66.1546C144.316 64.7272 145.249 62.9726 145.656 61.9129H135.656ZM137.702 59.5532C138.545 58.9741 139.312 58.703 139.804 58.58C140.278 58.4616 140.591 58.4549 140.688 58.4549L137.104 67.7907C138.037 67.7907 140.073 67.6439 142.239 66.1546L137.702 59.5532ZM140.688 58.4549H135.252L131.668 67.7907H137.104L140.688 58.4549ZM135.252 58.4549C135.329 58.4549 135.567 58.4605 135.875 58.5453C136.192 58.6325 136.633 58.8183 137.006 59.2089L127.96 66.499C129.033 67.6217 130.654 67.7907 131.668 67.7907L135.252 58.4549ZM137.286 59.5532C137.989 60.5774 137.6 61.7046 137.52 61.9129H127.52C127.113 62.9726 126.699 64.7272 127.68 66.1546L137.286 59.5532ZM137.52 61.9129L139.326 57.2076H129.326L127.52 61.9129H137.52ZM136.118 52.5397H129.746L126.163 61.8755H132.535L136.118 52.5397ZM122.954 57.2076L121.148 61.9129H131.148L132.954 57.2076H122.954ZM148.698 62.8539L143.771 65.9551L143.888 66.1603L144.037 66.3428L148.698 62.8539ZM155.106 45.4109H160.106L161.898 40.743H156.898L155.106 45.4109ZM148.909 45.142L143.982 48.2432L144.099 48.4485L144.248 48.6309L148.909 45.142ZM151.18 39.2269L148.912 35.9262L148.912 35.9262L151.18 39.2269ZM172.168 39.2269L167.241 42.3281L167.357 42.5333L167.507 42.7157L172.168 39.2269ZM163.53 45.4109L165.322 40.743H160.322L158.53 45.4109H163.53ZM156.51 62.8539L154.242 59.5532L154.242 59.5532L156.51 62.8539ZM157.227 58.4549H151.395L147.811 67.7907H153.643L157.227 58.4549ZM151.395 58.4549C151.49 58.4549 152.609 58.4512 153.36 59.3651L144.037 66.3428C145.082 67.6152 146.804 67.7907 147.811 67.7907L151.395 58.4549ZM153.626 59.7527C154.21 60.7809 153.806 61.8241 153.772 61.9129H143.772C143.411 62.8531 142.958 64.5237 143.771 65.9551L153.626 59.7527ZM153.772 61.9129L160.106 45.4109H150.106L143.772 61.9129H153.772ZM156.898 40.743H151.606L148.022 50.0788H153.314L156.898 40.743ZM151.606 40.743C151.701 40.743 152.82 40.7393 153.57 41.6532L144.248 48.6309C145.293 49.9033 147.015 50.0788 148.022 50.0788L151.606 40.743ZM153.837 42.0409C154.421 43.069 154.017 44.1122 153.983 44.201H143.983C143.622 45.1413 143.168 46.8118 143.982 48.2432L153.837 42.0409ZM153.983 44.201L155.544 40.1343H145.544L143.983 44.201H153.983ZM155.544 40.1343C155.509 40.2247 155.391 40.5147 155.11 40.9143C154.819 41.3293 154.291 41.9485 153.449 42.5276L148.912 35.9262C146.745 37.4155 145.878 39.2632 145.544 40.1343H155.544ZM153.449 42.5276C151.958 43.5517 150.735 43.5923 150.512 43.5923L154.096 34.2565C152.961 34.2565 150.988 34.4987 148.912 35.9262L153.449 42.5276ZM150.512 43.5923H169.52L173.104 34.2565H154.096L150.512 43.5923ZM169.52 43.5923C169.362 43.5923 167.95 43.5766 167.241 42.3281L177.096 36.1257C176.157 34.4739 174.174 34.2565 173.104 34.2565L169.52 43.5923ZM167.507 42.7157C166.596 41.6059 167.087 40.2822 167.144 40.1343H177.144C177.527 39.135 178.035 37.2063 176.829 35.7381L167.507 42.7157ZM167.144 40.1343L165.583 44.201H175.583L177.144 40.1343H167.144ZM165.583 44.201C165.663 43.9927 166.139 42.8655 167.629 41.8413L172.166 48.4428C174.243 47.0153 175.176 45.2607 175.583 44.201H165.583ZM167.629 41.8413C168.472 41.2622 169.239 40.9911 169.731 40.8681C170.204 40.7497 170.517 40.743 170.614 40.743L167.03 50.0788C167.963 50.0788 169.999 49.9321 172.166 48.4428L167.629 41.8413ZM170.614 40.743H165.322L161.738 50.0788H167.03L170.614 40.743ZM158.53 45.4109L152.196 61.9129H162.196L168.53 45.4109H158.53ZM152.196 61.9129C152.276 61.7046 152.752 60.5774 154.242 59.5532L158.779 66.1546C160.856 64.7272 161.789 62.9726 162.196 61.9129H152.196ZM154.242 59.5532C155.085 58.9741 155.852 58.703 156.344 58.58C156.817 58.4616 157.13 58.4549 157.227 58.4549L153.643 67.7907C154.576 67.7907 156.612 67.6439 158.779 66.1546L154.242 59.5532Z" fill="white" mask="url(#path-1-outside-1_85_25)"/>
<mask id="path-3-outside-2_85_25" maskUnits="userSpaceOnUse" x="-1.92493" y="1.86716" width="198.618" height="35.4761" fill="black">
<rect fill="white" x="-1.92493" y="1.86716" width="198.618" height="35.4761"/>
<path d="M12.9818 31.7417H7.40176C6.94576 31.7417 6.64417 31.6521 6.49697 31.4729C6.38238 31.2712 6.40679 30.9575 6.57021 30.5318L14.9302 8.75325C15.0936 8.32754 15.3057 8.02506 15.5666 7.84581C15.86 7.64416 16.2347 7.54333 16.6907 7.54333H27.7067C30.9707 7.54333 32.9704 8.14829 33.706 9.35821C34.4416 10.5681 34.4352 12.1477 33.6869 14.0971L32.0356 18.399C31.2873 20.3483 30.0809 21.9279 28.4165 23.1379C26.752 24.3478 24.2878 24.9527 21.0238 24.9527H16.8838L14.7422 30.5318C14.5788 30.9575 14.3504 31.2712 14.057 31.4729C13.7962 31.6521 13.4378 31.7417 12.9818 31.7417ZM21.0821 13.8282L19.134 18.9031H22.374C23.07 18.9031 23.5905 18.7351 23.9356 18.399C24.2806 18.0629 24.5348 17.682 24.6982 17.2563L25.382 15.475C25.5454 15.0493 25.5836 14.6684 25.4966 14.3323C25.4096 13.9962 25.0181 13.8282 24.3221 13.8282H21.0821ZM48.6448 31.7417H31.9408C31.4848 31.7417 31.1832 31.6521 31.036 31.4729C30.9214 31.2712 30.9459 30.9575 31.1093 30.5318L39.4693 8.75325C39.6327 8.32754 39.8448 8.02506 40.1056 7.84581C40.399 7.64416 40.7737 7.54333 41.2297 7.54333H57.9337C58.3897 7.54333 58.675 7.64416 58.7896 7.84581C58.9368 8.02506 58.9287 8.32754 58.7653 8.75325L57.2558 12.6855C57.0924 13.1112 56.864 13.4249 56.5706 13.6265C56.3098 13.8058 55.9514 13.8954 55.4954 13.8954H45.5594L44.566 16.4833H51.586C52.042 16.4833 52.3273 16.5841 52.4419 16.7858C52.5891 16.965 52.581 17.2675 52.4175 17.6932L51.0371 21.2894C50.8737 21.7151 50.6453 22.0288 50.3519 22.2304C50.0911 22.4097 49.7327 22.4993 49.2767 22.4993H42.2567L41.1472 25.3897H51.0832C51.5392 25.3897 51.8245 25.4905 51.9391 25.6921C52.0862 25.8714 52.0781 26.1739 51.9147 26.5996L50.4053 30.5318C50.2419 30.9575 50.0134 31.2712 49.72 31.4729C49.4592 31.6521 49.1008 31.7417 48.6448 31.7417ZM69.3022 13.5929L67.6508 17.8949H70.3508C70.9748 17.8949 71.4507 17.7492 71.7785 17.458C72.115 17.1443 72.3692 16.7634 72.5412 16.3153L72.9798 15.1725C73.1518 14.7244 73.1858 14.3547 73.0816 14.0635C72.986 13.7498 72.6262 13.5929 72.0022 13.5929H69.3022ZM61.0395 31.7417H55.4955C55.0395 31.7417 54.7379 31.6521 54.5907 31.4729C54.4761 31.2712 54.5005 30.9575 54.664 30.5318L63.024 8.75325C63.1874 8.32754 63.3995 8.02506 63.6603 7.84581C63.9537 7.64416 64.3284 7.54333 64.7844 7.54333H76.7724C79.4604 7.54333 81.1063 8.06987 81.7101 9.12295C82.3464 10.1536 82.3464 11.498 81.7099 13.156L81.1164 14.702C80.7552 15.6431 80.2896 16.4497 79.7196 17.1219C79.1821 17.7716 78.4855 18.2422 77.6297 18.5334C78.8741 18.6679 79.7289 19.1608 80.194 20.0122C80.6832 20.8637 80.6569 21.9952 80.115 23.4067L77.38 30.5318C77.2165 30.9575 76.9881 31.2712 76.6947 31.4729C76.4339 31.6521 76.0755 31.7417 75.6195 31.7417H70.0395C69.5835 31.7417 69.2819 31.6521 69.1347 31.4729C69.0201 31.2712 69.0445 30.9575 69.208 30.5318L71.1819 25.3897C71.3711 24.8967 71.4007 24.5382 71.2707 24.3142C71.1733 24.0677 70.8726 23.9445 70.3686 23.9445H65.3286L62.8 30.5318C62.6365 30.9575 62.4081 31.2712 62.1147 31.4729C61.8539 31.6521 61.4955 31.7417 61.0395 31.7417ZM92.9774 31.7417H81.6014C81.1454 31.7417 80.8438 31.6521 80.6966 31.4729C80.582 31.2712 80.6064 30.9575 80.7699 30.5318L82.2793 26.5996C82.4427 26.1739 82.6548 25.8714 82.9156 25.6921C83.2091 25.4905 83.5838 25.3897 84.0398 25.3897H93.7238C94.0358 25.3897 94.2982 25.3 94.511 25.1208C94.7564 24.9191 94.9307 24.6839 95.0339 24.415C95.1801 24.0341 95.2036 23.754 95.1044 23.5748C95.0292 23.3955 94.8399 23.2947 94.5365 23.2723L89.4075 22.5665C87.8135 22.3424 86.6553 21.8271 85.9329 21.0205C85.2345 20.2139 85.2466 18.8695 85.9691 16.9874L87.3237 13.4585C88.0548 11.554 89.2738 10.0976 90.9809 9.08934C92.6965 8.05867 94.7183 7.54333 97.0463 7.54333H107.126C107.582 7.54333 107.868 7.64416 107.982 7.84581C108.129 8.02506 108.121 8.32754 107.958 8.75325L106.423 12.7527C106.259 13.1784 106.031 13.4921 105.737 13.6938C105.477 13.873 105.118 13.9626 104.662 13.9626H96.2742C95.9622 13.9626 95.6835 14.0635 95.4381 14.2651C95.2013 14.4444 95.027 14.6796 94.9151 14.9709C94.8033 15.2622 94.7927 15.5086 94.8833 15.7103C94.9739 15.9119 95.1709 16.024 95.4743 16.0464L100.58 16.7186C102.174 16.9426 103.332 17.458 104.055 18.2646C104.777 19.0712 104.777 20.4155 104.055 22.2976L102.7 25.8266C101.969 27.7311 100.734 29.1987 98.994 30.2293C97.2869 31.2376 95.2814 31.7417 92.9774 31.7417ZM128.766 25.3897C128.37 26.4203 127.841 27.3614 127.178 28.2128C126.548 29.0418 125.697 29.7588 124.624 30.3638C123.585 30.9463 122.268 31.4056 120.675 31.7417C119.106 32.0778 117.206 32.2459 114.974 32.2459C112.742 32.2459 110.958 32.0778 109.623 31.7417C108.288 31.4056 107.313 30.9463 106.696 30.3638C106.113 29.7588 105.812 29.0418 105.794 28.2128C105.809 27.3614 106.014 26.4203 106.41 25.3897L110.809 13.929C111.205 12.8983 111.718 11.9685 112.348 11.1395C113.011 10.2881 113.866 9.55986 114.915 8.9549C115.987 8.34994 117.319 7.87942 118.912 7.54333C120.505 7.20724 122.418 7.0392 124.65 7.0392C126.882 7.0392 128.653 7.20724 129.964 7.54333C131.299 7.87942 132.259 8.34994 132.843 8.9549C133.45 9.55986 133.747 10.2881 133.732 11.1395C133.75 11.9685 133.561 12.8983 133.165 13.929L128.766 25.3897ZM115.046 24.1797C114.874 24.6279 114.908 25.0088 115.148 25.3224C115.396 25.6137 116.168 25.7594 117.464 25.7594C118.76 25.7594 119.644 25.6137 120.116 25.3224C120.596 25.0088 120.922 24.6279 121.094 24.1797L124.565 15.1389C124.728 14.7132 124.686 14.3547 124.438 14.0635C124.198 13.7498 123.43 13.5929 122.134 13.5929C120.838 13.5929 119.95 13.7498 119.47 14.0635C118.998 14.3547 118.68 14.7132 118.517 15.1389L115.046 24.1797ZM137.606 31.7417H132.206C131.75 31.7417 131.449 31.6521 131.302 31.4729C131.187 31.2712 131.211 30.9575 131.375 30.5318L139.735 8.75325C139.898 8.32754 140.11 8.02506 140.371 7.84581C140.665 7.64416 141.039 7.54333 141.495 7.54333H145.239C145.695 7.54333 146.054 7.61055 146.314 7.74498C146.598 7.87942 146.832 8.11468 147.015 8.45077L151.135 15.9119L153.883 8.75325C154.046 8.32754 154.258 8.02506 154.519 7.84581C154.813 7.64416 155.187 7.54333 155.643 7.54333H161.043C161.499 7.54333 161.785 7.64416 161.899 7.84581C162.046 8.02506 162.038 8.32754 161.875 8.75325L153.515 30.5318C153.351 30.9575 153.123 31.2712 152.83 31.4729C152.569 31.6521 152.21 31.7417 151.754 31.7417H146.354C145.898 31.7417 145.597 31.6521 145.45 31.4729C145.335 31.2712 145.359 30.9575 145.523 30.5318L147.11 26.3979L143.624 19.4409L139.367 30.5318C139.203 30.9575 138.975 31.2712 138.682 31.4729C138.421 31.6521 138.062 31.7417 137.606 31.7417ZM173.992 14.6012L170.339 19.7097H175.991L176.26 14.6012C176.241 14.3995 176.189 14.2539 176.103 14.1643C176.042 14.0747 175.939 14.0298 175.795 14.0298H174.895C174.751 14.0298 174.602 14.0747 174.447 14.1643C174.317 14.2539 174.165 14.3995 173.992 14.6012ZM165.824 30.5318C165.661 30.9575 165.433 31.2712 165.139 31.4729C164.878 31.6521 164.52 31.7417 164.064 31.7417H158.772C158.316 31.7417 158.014 31.6521 157.867 31.4729C157.753 31.2712 157.777 30.9575 157.94 30.5318L161.346 21.6591C161.604 20.9869 162.009 20.2139 162.56 19.3401C163.136 18.4662 163.887 17.4467 164.814 16.2816L170.875 8.65242C171.165 8.27152 171.489 7.99145 171.846 7.8122C172.226 7.63295 172.657 7.54333 173.137 7.54333H182.821C183.277 7.54333 183.614 7.63295 183.834 7.8122C184.077 7.99145 184.197 8.27152 184.195 8.65242L184.398 16.2816C184.431 17.4467 184.388 18.4662 184.268 19.3401C184.173 20.2139 183.996 20.9869 183.738 21.6591L180.332 30.5318C180.169 30.9575 179.941 31.2712 179.647 31.4729C179.386 31.6521 179.028 31.7417 178.572 31.7417H173.136C172.656 31.7417 172.33 31.6521 172.159 31.4729C172.021 31.2712 172.033 30.9575 172.196 30.5318L174.003 25.8266H167.631L165.824 30.5318Z"/>
</mask>
<path d="M12.9818 31.7417H7.40176C6.94576 31.7417 6.64417 31.6521 6.49697 31.4729C6.38238 31.2712 6.40679 30.9575 6.57021 30.5318L14.9302 8.75325C15.0936 8.32754 15.3057 8.02506 15.5666 7.84581C15.86 7.64416 16.2347 7.54333 16.6907 7.54333H27.7067C30.9707 7.54333 32.9704 8.14829 33.706 9.35821C34.4416 10.5681 34.4352 12.1477 33.6869 14.0971L32.0356 18.399C31.2873 20.3483 30.0809 21.9279 28.4165 23.1379C26.752 24.3478 24.2878 24.9527 21.0238 24.9527H16.8838L14.7422 30.5318C14.5788 30.9575 14.3504 31.2712 14.057 31.4729C13.7962 31.6521 13.4378 31.7417 12.9818 31.7417ZM21.0821 13.8282L19.134 18.9031H22.374C23.07 18.9031 23.5905 18.7351 23.9356 18.399C24.2806 18.0629 24.5348 17.682 24.6982 17.2563L25.382 15.475C25.5454 15.0493 25.5836 14.6684 25.4966 14.3323C25.4096 13.9962 25.0181 13.8282 24.3221 13.8282H21.0821ZM48.6448 31.7417H31.9408C31.4848 31.7417 31.1832 31.6521 31.036 31.4729C30.9214 31.2712 30.9459 30.9575 31.1093 30.5318L39.4693 8.75325C39.6327 8.32754 39.8448 8.02506 40.1056 7.84581C40.399 7.64416 40.7737 7.54333 41.2297 7.54333H57.9337C58.3897 7.54333 58.675 7.64416 58.7896 7.84581C58.9368 8.02506 58.9287 8.32754 58.7653 8.75325L57.2558 12.6855C57.0924 13.1112 56.864 13.4249 56.5706 13.6265C56.3098 13.8058 55.9514 13.8954 55.4954 13.8954H45.5594L44.566 16.4833H51.586C52.042 16.4833 52.3273 16.5841 52.4419 16.7858C52.5891 16.965 52.581 17.2675 52.4175 17.6932L51.0371 21.2894C50.8737 21.7151 50.6453 22.0288 50.3519 22.2304C50.0911 22.4097 49.7327 22.4993 49.2767 22.4993H42.2567L41.1472 25.3897H51.0832C51.5392 25.3897 51.8245 25.4905 51.9391 25.6921C52.0862 25.8714 52.0781 26.1739 51.9147 26.5996L50.4053 30.5318C50.2419 30.9575 50.0134 31.2712 49.72 31.4729C49.4592 31.6521 49.1008 31.7417 48.6448 31.7417ZM69.3022 13.5929L67.6508 17.8949H70.3508C70.9748 17.8949 71.4507 17.7492 71.7785 17.458C72.115 17.1443 72.3692 16.7634 72.5412 16.3153L72.9798 15.1725C73.1518 14.7244 73.1858 14.3547 73.0816 14.0635C72.986 13.7498 72.6262 13.5929 72.0022 13.5929H69.3022ZM61.0395 31.7417H55.4955C55.0395 31.7417 54.7379 31.6521 54.5907 31.4729C54.4761 31.2712 54.5005 30.9575 54.664 30.5318L63.024 8.75325C63.1874 8.32754 63.3995 8.02506 63.6603 7.84581C63.9537 7.64416 64.3284 7.54333 64.7844 7.54333H76.7724C79.4604 7.54333 81.1063 8.06987 81.7101 9.12295C82.3464 10.1536 82.3464 11.498 81.7099 13.156L81.1164 14.702C80.7552 15.6431 80.2896 16.4497 79.7196 17.1219C79.1821 17.7716 78.4855 18.2422 77.6297 18.5334C78.8741 18.6679 79.7289 19.1608 80.194 20.0122C80.6832 20.8637 80.6569 21.9952 80.115 23.4067L77.38 30.5318C77.2165 30.9575 76.9881 31.2712 76.6947 31.4729C76.4339 31.6521 76.0755 31.7417 75.6195 31.7417H70.0395C69.5835 31.7417 69.2819 31.6521 69.1347 31.4729C69.0201 31.2712 69.0445 30.9575 69.208 30.5318L71.1819 25.3897C71.3711 24.8967 71.4007 24.5382 71.2707 24.3142C71.1733 24.0677 70.8726 23.9445 70.3686 23.9445H65.3286L62.8 30.5318C62.6365 30.9575 62.4081 31.2712 62.1147 31.4729C61.8539 31.6521 61.4955 31.7417 61.0395 31.7417ZM92.9774 31.7417H81.6014C81.1454 31.7417 80.8438 31.6521 80.6966 31.4729C80.582 31.2712 80.6064 30.9575 80.7699 30.5318L82.2793 26.5996C82.4427 26.1739 82.6548 25.8714 82.9156 25.6921C83.2091 25.4905 83.5838 25.3897 84.0398 25.3897H93.7238C94.0358 25.3897 94.2982 25.3 94.511 25.1208C94.7564 24.9191 94.9307 24.6839 95.0339 24.415C95.1801 24.0341 95.2036 23.754 95.1044 23.5748C95.0292 23.3955 94.8399 23.2947 94.5365 23.2723L89.4075 22.5665C87.8135 22.3424 86.6553 21.8271 85.9329 21.0205C85.2345 20.2139 85.2466 18.8695 85.9691 16.9874L87.3237 13.4585C88.0548 11.554 89.2738 10.0976 90.9809 9.08934C92.6965 8.05867 94.7183 7.54333 97.0463 7.54333H107.126C107.582 7.54333 107.868 7.64416 107.982 7.84581C108.129 8.02506 108.121 8.32754 107.958 8.75325L106.423 12.7527C106.259 13.1784 106.031 13.4921 105.737 13.6938C105.477 13.873 105.118 13.9626 104.662 13.9626H96.2742C95.9622 13.9626 95.6835 14.0635 95.4381 14.2651C95.2013 14.4444 95.027 14.6796 94.9151 14.9709C94.8033 15.2622 94.7927 15.5086 94.8833 15.7103C94.9739 15.9119 95.1709 16.024 95.4743 16.0464L100.58 16.7186C102.174 16.9426 103.332 17.458 104.055 18.2646C104.777 19.0712 104.777 20.4155 104.055 22.2976L102.7 25.8266C101.969 27.7311 100.734 29.1987 98.994 30.2293C97.2869 31.2376 95.2814 31.7417 92.9774 31.7417ZM128.766 25.3897C128.37 26.4203 127.841 27.3614 127.178 28.2128C126.548 29.0418 125.697 29.7588 124.624 30.3638C123.585 30.9463 122.268 31.4056 120.675 31.7417C119.106 32.0778 117.206 32.2459 114.974 32.2459C112.742 32.2459 110.958 32.0778 109.623 31.7417C108.288 31.4056 107.313 30.9463 106.696 30.3638C106.113 29.7588 105.812 29.0418 105.794 28.2128C105.809 27.3614 106.014 26.4203 106.41 25.3897L110.809 13.929C111.205 12.8983 111.718 11.9685 112.348 11.1395C113.011 10.2881 113.866 9.55986 114.915 8.9549C115.987 8.34994 117.319 7.87942 118.912 7.54333C120.505 7.20724 122.418 7.0392 124.65 7.0392C126.882 7.0392 128.653 7.20724 129.964 7.54333C131.299 7.87942 132.259 8.34994 132.843 8.9549C133.45 9.55986 133.747 10.2881 133.732 11.1395C133.75 11.9685 133.561 12.8983 133.165 13.929L128.766 25.3897ZM115.046 24.1797C114.874 24.6279 114.908 25.0088 115.148 25.3224C115.396 25.6137 116.168 25.7594 117.464 25.7594C118.76 25.7594 119.644 25.6137 120.116 25.3224C120.596 25.0088 120.922 24.6279 121.094 24.1797L124.565 15.1389C124.728 14.7132 124.686 14.3547 124.438 14.0635C124.198 13.7498 123.43 13.5929 122.134 13.5929C120.838 13.5929 119.95 13.7498 119.47 14.0635C118.998 14.3547 118.68 14.7132 118.517 15.1389L115.046 24.1797ZM137.606 31.7417H132.206C131.75 31.7417 131.449 31.6521 131.302 31.4729C131.187 31.2712 131.211 30.9575 131.375 30.5318L139.735 8.75325C139.898 8.32754 140.11 8.02506 140.371 7.84581C140.665 7.64416 141.039 7.54333 141.495 7.54333H145.239C145.695 7.54333 146.054 7.61055 146.314 7.74498C146.598 7.87942 146.832 8.11468 147.015 8.45077L151.135 15.9119L153.883 8.75325C154.046 8.32754 154.258 8.02506 154.519 7.84581C154.813 7.64416 155.187 7.54333 155.643 7.54333H161.043C161.499 7.54333 161.785 7.64416 161.899 7.84581C162.046 8.02506 162.038 8.32754 161.875 8.75325L153.515 30.5318C153.351 30.9575 153.123 31.2712 152.83 31.4729C152.569 31.6521 152.21 31.7417 151.754 31.7417H146.354C145.898 31.7417 145.597 31.6521 145.45 31.4729C145.335 31.2712 145.359 30.9575 145.523 30.5318L147.11 26.3979L143.624 19.4409L139.367 30.5318C139.203 30.9575 138.975 31.2712 138.682 31.4729C138.421 31.6521 138.062 31.7417 137.606 31.7417ZM173.992 14.6012L170.339 19.7097H175.991L176.26 14.6012C176.241 14.3995 176.189 14.2539 176.103 14.1643C176.042 14.0747 175.939 14.0298 175.795 14.0298H174.895C174.751 14.0298 174.602 14.0747 174.447 14.1643C174.317 14.2539 174.165 14.3995 173.992 14.6012ZM165.824 30.5318C165.661 30.9575 165.433 31.2712 165.139 31.4729C164.878 31.6521 164.52 31.7417 164.064 31.7417H158.772C158.316 31.7417 158.014 31.6521 157.867 31.4729C157.753 31.2712 157.777 30.9575 157.94 30.5318L161.346 21.6591C161.604 20.9869 162.009 20.2139 162.56 19.3401C163.136 18.4662 163.887 17.4467 164.814 16.2816L170.875 8.65242C171.165 8.27152 171.489 7.99145 171.846 7.8122C172.226 7.63295 172.657 7.54333 173.137 7.54333H182.821C183.277 7.54333 183.614 7.63295 183.834 7.8122C184.077 7.99145 184.197 8.27152 184.195 8.65242L184.398 16.2816C184.431 17.4467 184.388 18.4662 184.268 19.3401C184.173 20.2139 183.996 20.9869 183.738 21.6591L180.332 30.5318C180.169 30.9575 179.941 31.2712 179.647 31.4729C179.386 31.6521 179.028 31.7417 178.572 31.7417H173.136C172.656 31.7417 172.33 31.6521 172.159 31.4729C172.021 31.2712 172.033 30.9575 172.196 30.5318L174.003 25.8266H167.631L165.824 30.5318Z" fill="#0D74CE"/>
<path d="M6.49697 31.4729L1.56949 34.574L1.68612 34.7793L1.83592 34.9617L6.49697 31.4729ZM15.5666 7.84581L13.298 4.54511L13.298 4.54511L15.5666 7.84581ZM33.706 9.35821L28.8198 12.5296L28.8198 12.5296L33.706 9.35821ZM28.4165 23.1379L25.9651 19.9664L25.9651 19.9664L28.4165 23.1379ZM16.8838 24.9527L18.6757 20.2848H13.6757L11.8838 24.9527H16.8838ZM14.057 31.4729L11.7885 28.1722L11.7885 28.1722L14.057 31.4729ZM21.0821 13.8282L22.874 9.16029H17.874L16.0821 13.8282H21.0821ZM19.134 18.9031H14.134L12.3422 23.571H17.3422L19.134 18.9031ZM23.9356 18.399L27.3011 20.8006L27.3011 20.8006L23.9356 18.399ZM25.4966 14.3323L20.2873 16.7339L20.2873 16.7339L25.4966 14.3323ZM14.7736 27.0738H9.1936L5.60992 36.4096H11.1899L14.7736 27.0738ZM9.1936 27.0738C9.28875 27.0738 10.4076 27.0701 11.158 27.984L1.83592 34.9617C2.88078 36.2341 4.60278 36.4096 5.60992 36.4096L9.1936 27.0738ZM11.4245 28.3717C12.0087 29.3998 11.6043 30.443 11.5702 30.5318H1.57021C1.20928 31.4721 0.756052 33.1426 1.56949 34.574L11.4245 28.3717ZM11.5702 30.5318L19.9302 8.75325H9.93022L1.57021 30.5318H11.5702ZM19.9302 8.75325C19.8955 8.84367 19.777 9.13359 19.4968 9.5332C19.2058 9.94825 18.6777 10.5674 17.8351 11.1465L13.298 4.54511C11.1311 6.03441 10.2646 7.88216 9.93022 8.75325H19.9302ZM17.8351 11.1465C16.3449 12.1707 15.1219 12.2112 14.8988 12.2112L18.4825 2.87543C17.3474 2.87543 15.375 3.11766 13.298 4.54511L17.8351 11.1465ZM14.8988 12.2112H25.9148L29.4985 2.87543H18.4825L14.8988 12.2112ZM25.9148 12.2112C27.2497 12.2112 28.0725 12.3385 28.5397 12.4799C28.999 12.6188 28.9316 12.7135 28.8198 12.5296L38.5922 6.1868C36.9437 3.47516 33.0776 2.87543 29.4985 2.87543L25.9148 12.2112ZM28.8198 12.5296C28.9374 12.723 29.0712 13.096 28.6869 14.0971H38.6869C39.7992 11.1995 39.9457 8.41326 38.5922 6.1868L28.8198 12.5296ZM28.6869 14.0971L27.0356 18.399H37.0356L38.6869 14.0971H28.6869ZM27.0356 18.399C26.6513 19.4001 26.2311 19.7731 25.9651 19.9664L30.8679 26.3093C33.9308 24.0828 35.9233 21.2966 37.0356 18.399H27.0356ZM25.9651 19.9664C26.218 19.7826 26.2128 19.8773 25.6467 20.0162C25.0711 20.1575 24.1505 20.2848 22.8157 20.2848L19.232 29.6206C22.8111 29.6206 27.1376 29.0209 30.8679 26.3093L25.9651 19.9664ZM22.8157 20.2848H18.6757L15.092 29.6206H19.232L22.8157 20.2848ZM11.8838 24.9527L9.74221 30.5318H19.7422L21.8838 24.9527H11.8838ZM9.74221 30.5318C9.82215 30.3236 10.2983 29.1963 11.7885 28.1722L16.3255 34.7736C18.4024 33.3461 19.3354 31.5915 19.7422 30.5318H9.74221ZM11.7885 28.1722C12.6311 27.593 13.3984 27.3219 13.8901 27.1989C14.3636 27.0805 14.6768 27.0738 14.7736 27.0738L11.1899 36.4096C12.123 36.4096 14.1585 36.2629 16.3255 34.7736L11.7885 28.1722ZM16.0821 13.8282L14.134 18.9031H24.134L26.0821 13.8282H16.0821ZM17.3422 23.571H20.5822L24.1659 14.2352H20.9259L17.3422 23.571ZM20.5822 23.571C21.8404 23.571 24.7467 23.289 27.3011 20.8006L20.57 15.9974C21.4479 15.1422 22.4129 14.6626 23.1173 14.4352C23.7413 14.2338 24.1286 14.2352 24.1659 14.2352L20.5822 23.571ZM27.3011 20.8006C28.4546 19.677 29.239 18.4526 29.6982 17.2563H19.6982C19.8306 16.9114 20.1066 16.4488 20.57 15.9974L27.3011 20.8006ZM29.6982 17.2563L30.382 15.475H20.382L19.6982 17.2563H29.6982ZM30.382 15.475C30.8412 14.2787 30.9968 13.0543 30.706 11.9307L20.2873 16.7339C20.1704 16.2825 20.2496 15.8199 20.382 15.475H30.382ZM30.706 11.9307C30.0619 9.44232 27.3722 9.16029 26.114 9.16029L22.5303 18.4961C22.493 18.4961 22.1046 18.4976 21.6352 18.2961C21.1054 18.0687 20.5086 17.5891 20.2873 16.7339L30.706 11.9307ZM26.114 9.16029H22.874L19.2903 18.4961H22.5303L26.114 9.16029ZM31.036 31.4729L26.1086 34.574L26.2252 34.7793L26.375 34.9617L31.036 31.4729ZM40.1056 7.84581L37.8371 4.54511L37.8371 4.54511L40.1056 7.84581ZM58.7896 7.84581L53.8621 10.947L53.9788 11.1522L54.1286 11.3346L58.7896 7.84581ZM45.5594 13.8954L47.3512 9.22751H42.3512L40.5594 13.8954H45.5594ZM44.566 16.4833H39.566L37.7742 21.1512H42.7742L44.566 16.4833ZM52.4419 16.7858L47.5144 19.887L47.631 20.0922L47.7808 20.2746L52.4419 16.7858ZM42.2567 22.4993L44.0485 17.8314H39.0485L37.2567 22.4993H42.2567ZM41.1472 25.3897H36.1472L34.3553 30.0576H39.3553L41.1472 25.3897ZM51.9391 25.6921L47.0116 28.7933L47.1282 28.9985L47.278 29.181L51.9391 25.6921ZM49.72 31.4729L51.9885 34.7736L51.9885 34.7736L49.72 31.4729ZM50.4367 27.0738H33.7327L30.149 36.4096H46.853L50.4367 27.0738ZM33.7327 27.0738C33.8278 27.0738 34.9466 27.0701 35.6971 27.984L26.375 34.9617C27.4198 36.2341 29.1418 36.4096 30.149 36.4096L33.7327 27.0738ZM35.9635 28.3717C36.5478 29.3998 36.1434 30.443 36.1093 30.5318H26.1093C25.7483 31.4721 25.2951 33.1426 26.1086 34.574L35.9635 28.3717ZM36.1093 30.5318L44.4693 8.75325H34.4693L26.1093 30.5318H36.1093ZM44.4693 8.75325C44.4346 8.84367 44.3161 9.13359 44.0359 9.5332C43.7448 9.94825 43.2168 10.5674 42.3741 11.1465L37.8371 4.54511C35.6701 6.03441 34.8037 7.88216 34.4693 8.75325H44.4693ZM42.3741 11.1465C40.884 12.1707 39.661 12.2112 39.4379 12.2112L43.0216 2.87543C41.8865 2.87543 39.914 3.11766 37.8371 4.54511L42.3741 11.1465ZM39.4379 12.2112H56.1419L59.7256 2.87543H43.0216L39.4379 12.2112ZM56.1419 12.2112C55.9835 12.2112 54.5716 12.1955 53.8621 10.947L63.7171 4.74462C62.7784 3.09279 60.796 2.87543 59.7256 2.87543L56.1419 12.2112ZM54.1286 11.3346C53.2172 10.2248 53.7085 8.90113 53.7653 8.75325H63.7653C64.1489 7.75394 64.6564 5.82527 63.4507 4.35698L54.1286 11.3346ZM53.7653 8.75325L52.2558 12.6855H62.2558L63.7653 8.75325H53.7653ZM52.2558 12.6855C52.3358 12.4772 52.812 11.35 54.3021 10.3258L58.8391 16.9272C60.9161 15.4998 61.8491 13.7452 62.2558 12.6855H52.2558ZM54.3021 10.3258C55.1447 9.74671 55.912 9.4756 56.4038 9.35262C56.8772 9.23421 57.1904 9.22751 57.2872 9.22751L53.7035 18.5633C54.6366 18.5633 56.6722 18.4165 58.8391 16.9272L54.3021 10.3258ZM57.2872 9.22751H47.3512L43.7675 18.5633H53.7035L57.2872 9.22751ZM40.5594 13.8954L39.566 16.4833H49.566L50.5594 13.8954H40.5594ZM42.7742 21.1512H49.7942L53.3778 11.8154H46.3578L42.7742 21.1512ZM49.7942 21.1512C49.6358 21.1512 48.2239 21.1355 47.5144 19.887L57.3694 13.6846C56.4307 12.0328 54.4482 11.8154 53.3778 11.8154L49.7942 21.1512ZM47.7808 20.2746C46.8695 19.1648 47.3608 17.8411 47.4175 17.6932H57.4175C57.8011 16.6939 58.3087 14.7652 57.1029 13.2969L47.7808 20.2746ZM47.4175 17.6932L46.0371 21.2894H56.0371L57.4175 17.6932H47.4175ZM46.0371 21.2894C46.1171 21.0811 46.5932 19.9538 48.0834 18.9297L52.6204 25.5311C54.6973 24.1037 55.6303 22.3491 56.0371 21.2894H46.0371ZM48.0834 18.9297C48.926 18.3506 49.6933 18.0795 50.185 17.9565C50.6585 17.8381 50.9717 17.8314 51.0685 17.8314L47.4848 27.1672C48.4179 27.1672 50.4534 27.0204 52.6204 25.5311L48.0834 18.9297ZM51.0685 17.8314H44.0485L40.4648 27.1672H47.4848L51.0685 17.8314ZM37.2567 22.4993L36.1472 25.3897H46.1472L47.2567 22.4993H37.2567ZM39.3553 30.0576H49.2913L52.875 20.7218H42.939L39.3553 30.0576ZM49.2913 30.0576C49.1329 30.0576 47.7211 30.0418 47.0116 28.7933L56.8665 22.5909C55.9279 20.9391 53.9454 20.7218 52.875 20.7218L49.2913 30.0576ZM47.278 29.181C46.3667 28.0712 46.858 26.7475 46.9147 26.5996H56.9147C57.2983 25.6003 57.8058 23.6716 56.6001 22.2033L47.278 29.181ZM46.9147 26.5996L45.4053 30.5318H55.4053L56.9147 26.5996H46.9147ZM45.4053 30.5318C45.4852 30.3236 45.9614 29.1963 47.4515 28.1722L51.9885 34.7736C54.0655 33.3461 54.9985 31.5915 55.4053 30.5318H45.4053ZM47.4515 28.1722C48.2942 27.593 49.0614 27.3219 49.5532 27.1989C50.0267 27.0805 50.3398 27.0738 50.4367 27.0738L46.853 36.4096C47.7861 36.4096 49.8216 36.2629 51.9885 34.7736L47.4515 28.1722ZM69.3022 13.5929L71.094 8.92503H66.094L64.3022 13.5929H69.3022ZM67.6508 17.8949H62.6508L60.859 22.5628H65.859L67.6508 17.8949ZM71.7785 17.458L74.8696 20.115L74.9435 20.0493L75.0155 19.9822L71.7785 17.458ZM73.0816 14.0635L67.9067 16.5877L67.9272 16.6548L67.9507 16.7205L73.0816 14.0635ZM54.5907 31.4729L49.6632 34.574L49.7799 34.7793L49.9297 34.9617L54.5907 31.4729ZM63.6603 7.84581L61.3918 4.54511L61.3918 4.54511L63.6603 7.84581ZM81.7101 9.12295L76.7878 12.2333L76.8102 12.2723L76.8338 12.3106L81.7101 9.12295ZM79.7196 17.1219L75.8442 15.2659L75.8141 15.3014L75.7846 15.3371L79.7196 17.1219ZM77.6297 18.5334L77.3485 14.2287L56.9069 21.1861L75.2967 23.1728L77.6297 18.5334ZM80.194 20.0122L75.244 23.0729L75.2583 23.099L75.2731 23.1248L80.194 20.0122ZM76.6947 31.4729L78.9632 34.7736L78.9632 34.7736L76.6947 31.4729ZM69.1347 31.4729L64.2072 34.5741L64.3239 34.7793L64.4737 34.9617L69.1347 31.4729ZM71.2707 24.3142L66.1731 27.0597L66.2508 27.2562L66.3555 27.4368L71.2707 24.3142ZM65.3286 23.9445L67.1204 19.2766H62.1204L60.3286 23.9445H65.3286ZM62.1147 31.4729L59.8462 28.1722L59.8462 28.1722L62.1147 31.4729ZM64.3022 13.5929L62.6508 17.8949H72.6508L74.3022 13.5929H64.3022ZM65.859 22.5628H68.559L72.1427 13.227H69.4427L65.859 22.5628ZM68.559 22.5628C69.7548 22.5628 72.4009 22.3085 74.8696 20.115L68.6875 14.8009C69.559 14.0266 70.4663 13.6082 71.1145 13.4098C71.7026 13.2299 72.0765 13.227 72.1427 13.227L68.559 22.5628ZM75.0155 19.9822C76.3095 18.7755 77.0956 17.476 77.5412 16.3153H67.5412C67.6427 16.0507 67.9204 15.513 68.5416 14.9337L75.0155 19.9822ZM77.5412 16.3153L77.9798 15.1725H67.9798L67.5412 16.3153H77.5412ZM77.9798 15.1725C78.4196 14.027 78.6618 12.6627 78.2125 11.4064L67.9507 16.7205C67.7097 16.0468 67.8841 15.4219 67.9798 15.1725H77.9798ZM78.2564 11.5393C77.5611 9.25761 75.1172 8.92503 73.794 8.92503L70.2103 18.2608C70.1113 18.2608 69.698 18.2532 69.2194 18.0446C68.6862 17.8122 68.14 17.3532 67.9067 16.5877L78.2564 11.5393ZM73.794 8.92503H71.094L67.5103 18.2608H70.2103L73.794 8.92503ZM62.8314 27.0738H57.2874L53.7037 36.4096H59.2477L62.8314 27.0738ZM57.2874 27.0738C57.3825 27.0738 58.5013 27.0701 59.2518 27.984L49.9297 34.9617C50.9745 36.2341 52.6965 36.4096 53.7037 36.4096L57.2874 27.0738ZM59.5182 28.3717C60.1025 29.3998 59.6981 30.443 59.664 30.5318H49.664C49.303 31.4721 48.8498 33.1426 49.6632 34.574L59.5182 28.3717ZM59.664 30.5318L68.024 8.75325H58.024L49.664 30.5318H59.664ZM68.024 8.75325C67.9893 8.84367 67.8708 9.13359 67.5906 9.5332C67.2995 9.94825 66.7715 10.5674 65.9288 11.1465L61.3918 4.54511C59.2248 6.03441 58.3583 7.88216 58.024 8.75325H68.024ZM65.9288 11.1465C64.4387 12.1707 63.2157 12.2112 62.9926 12.2112L66.5763 2.87543C65.4412 2.87543 63.4687 3.11766 61.3918 4.54511L65.9288 11.1465ZM62.9926 12.2112H74.9806L78.5643 2.87543H66.5763L62.9926 12.2112ZM74.9806 12.2112C76.0079 12.2112 76.5765 12.3155 76.8495 12.4028C77.1063 12.485 76.9392 12.4974 76.7878 12.2333L86.6323 6.01258C85.1487 3.42491 81.6421 2.87543 78.5643 2.87543L74.9806 12.2112ZM76.8338 12.3106C76.8443 12.3276 76.9769 12.4605 76.7099 13.156H86.7099C87.7158 10.5355 87.8485 7.97965 86.5863 5.93531L76.8338 12.3106ZM76.7099 13.156L76.1164 14.702H86.1164L86.7099 13.156H76.7099ZM76.1164 14.702C75.9334 15.1789 75.7977 15.3207 75.8442 15.2659L83.5949 18.9779C84.7815 17.5786 85.577 16.1072 86.1164 14.702H76.1164ZM75.7846 15.3371C75.9771 15.1043 76.2477 14.8487 76.5822 14.6228C76.9097 14.4016 77.1876 14.2835 77.3485 14.2287L77.9109 22.8381C80.0561 22.108 82.1045 20.7807 83.6545 18.9066L75.7846 15.3371ZM75.2967 23.1728C75.3577 23.1794 75.3847 23.1872 75.3876 23.188C75.3897 23.1887 75.3738 23.184 75.3486 23.1694C75.323 23.1547 75.2978 23.1355 75.2765 23.1138C75.2554 23.0924 75.2458 23.0762 75.244 23.0729L85.1441 16.9515C84.1547 15.1406 82.302 14.1468 79.9627 13.8941L75.2967 23.1728ZM75.2731 23.1248C75.257 23.0969 75.2447 23.0651 75.2375 23.034C75.2303 23.0033 75.2309 22.9855 75.2308 22.9887C75.2306 22.9962 75.2261 23.1174 75.115 23.4067H85.115C85.9895 21.1288 86.2046 18.7962 85.115 16.8997L75.2731 23.1248ZM75.115 23.4067L72.38 30.5318H82.38L85.115 23.4067H75.115ZM72.38 30.5318C72.4599 30.3236 72.9361 29.1963 74.4262 28.1722L78.9632 34.7736C81.0402 33.3461 81.9732 31.5915 82.38 30.5318H72.38ZM74.4262 28.1722C75.2689 27.593 76.0361 27.3219 76.5279 27.1989C77.0014 27.0805 77.3145 27.0738 77.4114 27.0738L73.8277 36.4096C74.7607 36.4096 76.7963 36.2629 78.9632 34.7736L74.4262 28.1722ZM77.4114 27.0738H71.8314L68.2477 36.4096H73.8277L77.4114 27.0738ZM71.8314 27.0738C71.9265 27.0738 73.0453 27.0701 73.7958 27.984L64.4737 34.9617C65.5185 36.2341 67.2405 36.4096 68.2477 36.4096L71.8314 27.0738ZM74.0622 28.3717C74.6465 29.3998 74.2421 30.443 74.208 30.5318H64.208C63.847 31.4721 63.3938 33.1426 64.2072 34.5741L74.0622 28.3717ZM74.208 30.5318L76.1819 25.3897H66.1819L64.208 30.5318H74.208ZM76.1819 25.3897C76.5497 24.4314 77.0461 22.6742 76.1858 21.1915L66.3555 27.4368C66.0473 26.9055 66.0185 26.3665 66.0476 26.0149C66.0757 25.6747 66.162 25.4414 66.1819 25.3897H76.1819ZM76.3683 21.5686C75.5778 19.5681 73.368 19.2766 72.1604 19.2766L68.5768 28.6124C68.3772 28.6124 66.7688 28.5673 66.1731 27.0597L76.3683 21.5686ZM72.1604 19.2766H67.1204L63.5368 28.6124H68.5768L72.1604 19.2766ZM60.3286 23.9445L57.8 30.5318H67.8L70.3286 23.9445H60.3286ZM57.8 30.5318C57.8799 30.3236 58.3561 29.1963 59.8462 28.1722L64.3832 34.7736C66.4602 33.3461 67.3932 31.5915 67.8 30.5318H57.8ZM59.8462 28.1722C60.6888 27.593 61.4561 27.3219 61.9479 27.1989C62.4214 27.0805 62.7345 27.0738 62.8314 27.0738L59.2477 36.4096C60.1807 36.4096 62.2163 36.2629 64.3832 34.7736L59.8462 28.1722ZM80.6966 31.4729L75.7692 34.574L75.8858 34.7793L76.0356 34.9617L80.6966 31.4729ZM82.9156 25.6921L85.1842 28.9928L85.1842 28.9928L82.9156 25.6921ZM94.511 25.1208L91.6643 22.255L91.625 22.2873L91.5861 22.32L94.511 25.1208ZM95.1044 23.5748L90.0293 26.3755L90.0884 26.5162L90.1616 26.6486L95.1044 23.5748ZM94.5365 23.2723L92.0688 27.8951L92.2154 27.9153L92.3665 27.9264L94.5365 23.2723ZM89.4075 22.5665L86.9265 27.1875L86.9397 27.1893L89.4075 22.5665ZM85.9329 21.0205L81.3185 24.5646L81.3338 24.5823L81.3493 24.5996L85.9329 21.0205ZM90.9809 9.08934L92.7602 12.7021L92.7873 12.6861L92.8142 12.67L90.9809 9.08934ZM107.982 7.84581L103.055 10.947L103.171 11.1522L103.321 11.3346L107.982 7.84581ZM95.4381 14.2651L98.021 17.3389L98.1552 17.2374L98.2847 17.1309L95.4381 14.2651ZM95.4743 16.0464L97.9154 11.42L97.7817 11.4024L97.6444 11.3922L95.4743 16.0464ZM100.58 16.7186L103.061 12.0976L103.041 12.0948L103.021 12.0921L100.58 16.7186ZM104.055 18.2646L108.638 14.6854L108.638 14.6854L104.055 18.2646ZM98.994 30.2293L100.773 33.8421L100.783 33.8363L98.994 30.2293ZM94.7693 27.0738H83.3933L79.8096 36.4096H91.1856L94.7693 27.0738ZM83.3933 27.0738C83.4884 27.0738 84.6072 27.0701 85.3577 27.984L76.0356 34.9617C77.0804 36.2341 78.8024 36.4096 79.8096 36.4096L83.3933 27.0738ZM85.6241 28.3717C86.2084 29.3998 85.804 30.443 85.7699 30.5318H75.7699C75.4089 31.4721 74.9557 33.1426 75.7692 34.574L85.6241 28.3717ZM85.7699 30.5318L87.2793 26.5996H77.2793L75.7699 30.5318H85.7699ZM87.2793 26.5996C87.2446 26.69 87.1261 26.9799 86.8459 27.3795C86.5549 27.7946 86.0268 28.4137 85.1842 28.9928L80.6471 22.3914C78.4802 23.8807 77.6137 25.7285 77.2793 26.5996H87.2793ZM85.1842 28.9928C83.694 30.017 82.471 30.0576 82.2479 30.0576L85.8316 20.7218C84.6965 20.7218 82.7241 20.964 80.6471 22.3914L85.1842 28.9928ZM82.2479 30.0576H91.9319L95.5156 20.7218H85.8316L82.2479 30.0576ZM91.9319 30.0576C93.301 30.0576 95.4255 29.6149 97.4359 27.9215L91.5861 22.32C92.2906 21.7266 93.0869 21.2863 93.8657 21.0203C94.5999 20.7696 95.1729 20.7218 95.5156 20.7218L91.9319 30.0576ZM97.3576 27.9866C98.6549 26.9206 99.5547 25.6634 100.034 24.415H90.0339C90.3067 23.7043 90.8578 22.9177 91.6643 22.255L97.3576 27.9866ZM100.034 24.415C100.369 23.5432 100.829 21.9132 100.047 20.5009L90.1616 26.6486C89.8641 26.111 89.8309 25.5631 89.8632 25.1779C89.8946 24.8043 89.9911 24.5266 90.0339 24.415H100.034ZM100.18 20.774C99.5257 19.2154 97.9545 18.7103 96.7066 18.6181L92.3665 27.9264C91.7254 27.8791 90.5328 27.5757 90.0293 26.3755L100.18 20.774ZM97.0043 18.6495L91.8752 17.9437L86.9397 27.1893L92.0688 27.8951L97.0043 18.6495ZM91.8884 17.9455C90.9428 17.8126 90.6239 17.5613 90.5165 17.4413L81.3493 24.5996C82.6867 26.093 84.6842 26.8723 86.9265 27.1875L91.8884 17.9455ZM90.5473 17.4764C90.6291 17.5708 90.6789 17.6698 90.7057 17.7536C90.7315 17.8346 90.7293 17.8803 90.7294 17.8652C90.7298 17.8191 90.7484 17.5622 90.9691 16.9874H80.9691C79.9969 19.5201 79.5258 22.4941 81.3185 24.5646L90.5473 17.4764ZM90.9691 16.9874L92.3237 13.4585H82.3237L80.9691 16.9874H90.9691ZM92.3237 13.4585C92.4973 13.0062 92.6529 12.8045 92.693 12.7566C92.7043 12.7431 92.7114 12.7358 92.714 12.7332C92.7155 12.7317 92.7163 12.7309 92.7166 12.7307C92.7169 12.7304 92.717 12.7303 92.717 12.7303C92.717 12.7303 92.7173 12.73 92.7182 12.7294C92.719 12.7287 92.7207 12.7274 92.7234 12.7255C92.7287 12.7218 92.7403 12.7139 92.7602 12.7021L89.2015 5.47658C85.6952 7.54759 83.4754 10.4581 82.3237 13.4585H92.3237ZM92.8142 12.67C93.005 12.5554 93.6848 12.2112 95.2545 12.2112L98.8382 2.87543C95.7519 2.87543 92.388 3.56197 89.1476 5.5087L92.8142 12.67ZM95.2545 12.2112H105.334L108.918 2.87543H98.8382L95.2545 12.2112ZM105.334 12.2112C105.176 12.2112 103.764 12.1955 103.055 10.947L112.91 4.74463C111.971 3.09279 109.989 2.87543 108.918 2.87543L105.334 12.2112ZM103.321 11.3346C102.41 10.2248 102.901 8.90113 102.958 8.75325H112.958C113.341 7.75394 113.849 5.82527 112.643 4.35698L103.321 11.3346ZM102.958 8.75325L101.423 12.7527H111.423L112.958 8.75325H102.958ZM101.423 12.7527C101.503 12.5444 101.979 11.4172 103.469 10.3931L108.006 16.9945C110.083 15.567 111.016 13.8124 111.423 12.7527H101.423ZM103.469 10.3931C104.312 9.81392 105.079 9.54281 105.571 9.41983C106.044 9.30143 106.357 9.29472 106.454 9.29472L102.87 18.6305C103.803 18.6305 105.839 18.4838 108.006 16.9945L103.469 10.3931ZM106.454 9.29472H98.066L94.4823 18.6305H102.87L106.454 9.29472ZM98.066 9.29472C96.4565 9.29472 94.4267 9.89124 92.5914 11.3993L98.2847 17.1309C97.7062 17.6063 97.0081 18.0204 96.249 18.295C95.5133 18.5612 94.9043 18.6305 94.4823 18.6305L98.066 9.29472ZM92.8551 11.1913C91.2577 12.4004 90.3601 13.8119 89.9151 14.9709H99.9151C99.6939 15.5474 99.1448 16.4883 98.021 17.3389L92.8551 11.1913ZM89.9151 14.9709C89.4635 16.1475 89.3271 17.4422 89.8365 18.5761L99.9302 12.8445C100.258 13.5751 100.143 14.3768 99.9151 14.9709H89.9151ZM89.8365 18.5761C90.4625 19.9696 91.8513 20.5932 93.3043 20.7005L97.6444 11.3922C98.017 11.4197 98.4893 11.5154 98.9377 11.7705C99.3985 12.0325 99.7333 12.4064 99.9302 12.8445L89.8365 18.5761ZM93.0332 20.6728L98.1392 21.345L103.021 12.0921L97.9154 11.42L93.0332 20.6728ZM98.0993 21.3395C99.045 21.4725 99.3638 21.7238 99.4712 21.8437L108.638 14.6854C107.301 13.1921 105.304 12.4128 103.061 12.0976L98.0993 21.3395ZM99.4712 21.8437C99.3912 21.7543 99.3401 21.6583 99.3116 21.5736C99.2841 21.4917 99.2852 21.4428 99.2852 21.4524C99.2852 21.4874 99.2716 21.7324 99.0547 22.2976H109.055C110.039 19.7338 110.485 16.747 108.638 14.6854L99.4712 21.8437ZM99.0547 22.2976L97.7 25.8266H107.7L109.055 22.2976H99.0547ZM97.7 25.8266C97.5307 26.2678 97.3767 26.4677 97.332 26.5208C97.3086 26.5487 97.2952 26.5602 97.2888 26.5656C97.282 26.5714 97.2586 26.5905 97.2049 26.6223L100.783 33.8363C104.285 31.7613 106.536 28.8589 107.7 25.8266H97.7ZM97.2146 26.6166C97.0116 26.7364 96.3238 27.0738 94.7693 27.0738L91.1856 36.4096C94.2391 36.4096 97.5622 35.7388 100.773 33.8421L97.2146 26.6166ZM127.178 28.2128L123.106 26.5991L123.08 26.6322L123.055 26.6655L127.178 28.2128ZM124.624 30.3638L126.238 34.0718L126.249 34.0658L126.26 34.0597L124.624 30.3638ZM120.675 31.7417L121.222 27.2089L121.211 27.211L121.201 27.2132L120.675 31.7417ZM109.623 31.7417L106.69 36.2746L106.69 36.2746L109.623 31.7417ZM106.696 30.3638L102.184 34.0193L102.229 34.066L102.276 34.1109L106.696 30.3638ZM105.794 28.2128L100.483 29.7237L100.482 29.7946L100.484 29.8647L105.794 28.2128ZM112.348 11.1395L108.276 9.52576L108.25 9.55886L108.225 9.59214L112.348 11.1395ZM114.915 8.9549L113.279 5.25894L113.244 5.279L113.208 5.29942L114.915 8.9549ZM118.912 7.54333L119.458 3.01046L119.458 3.01046L118.912 7.54333ZM129.964 7.54333L127.013 12.0719L127.022 12.074L127.03 12.0762L129.964 7.54333ZM132.843 8.9549L128.33 12.6104L128.35 12.6308L128.37 12.6509L132.843 8.9549ZM133.732 11.1395L128.421 12.6504L128.42 12.7213L128.421 12.7914L133.732 11.1395ZM115.148 25.3224L110.426 28.7349L110.471 28.7936L110.519 28.8499L115.148 25.3224ZM120.116 25.3224L122.036 28.8499L122.127 28.7936L122.217 28.7349L120.116 25.3224ZM124.438 14.0635L119.716 17.476L119.761 17.5346L119.809 17.5909L124.438 14.0635ZM119.47 14.0635L121.39 17.5909L121.481 17.5346L121.571 17.476L119.47 14.0635ZM123.766 25.3897C123.553 25.9437 123.316 26.3295 123.106 26.5991L131.25 29.8265C132.366 28.3932 133.187 26.897 133.766 25.3897H123.766ZM123.055 26.6655C123.069 26.6464 123.086 26.6265 123.104 26.6076C123.122 26.5888 123.136 26.5766 123.142 26.5716C123.148 26.5667 123.142 26.5726 123.119 26.5883C123.095 26.6043 123.054 26.6314 122.989 26.6678L126.26 34.0597C128.181 32.976 129.944 31.5455 131.301 29.7601L123.055 26.6655ZM123.011 26.6558C122.915 26.7095 122.398 26.9606 121.222 27.2089L120.129 36.2746C122.139 35.8507 124.255 35.1831 126.238 34.0718L123.011 26.6558ZM121.201 27.2132C120.222 27.4229 118.772 27.578 116.766 27.578L113.182 36.9138C115.64 36.9138 117.991 36.7328 120.15 36.2703L121.201 27.2132ZM116.766 27.578C114.763 27.578 113.41 27.4235 112.557 27.2089L106.69 36.2746C108.507 36.7321 110.721 36.9138 113.182 36.9138L116.766 27.578ZM112.557 27.2089C111.573 26.9609 111.208 26.7036 111.116 26.6166L102.276 34.1109C103.417 35.1891 105.004 35.8503 106.69 36.2746L112.557 27.2089ZM111.209 26.7083C111.136 26.633 111.114 26.5848 111.108 26.5716C111.105 26.5641 111.104 26.561 111.105 26.5617C111.105 26.5625 111.105 26.5628 111.105 26.5609L100.484 29.8647C100.52 31.5569 101.145 32.9432 102.184 34.0193L111.209 26.7083ZM111.105 26.7019C111.11 26.4018 111.183 25.9798 111.41 25.3897H101.41C100.845 26.8609 100.508 28.321 100.483 29.7237L111.105 26.7019ZM111.41 25.3897L115.809 13.929H105.809L101.41 25.3897H111.41ZM115.809 13.929C116.037 13.3362 116.278 12.941 116.471 12.6868L108.225 9.59214C107.157 10.996 106.373 12.4605 105.809 13.929H115.809ZM116.42 12.7532C116.43 12.7405 116.435 12.736 116.444 12.7277C116.456 12.7176 116.506 12.6764 116.621 12.6104L113.208 5.29942C111.307 6.39677 109.609 7.81305 108.276 9.52576L116.42 12.7532ZM116.55 12.6509C116.688 12.5728 117.221 12.3177 118.366 12.0762L119.458 3.01046C117.417 3.4411 115.285 4.12711 113.279 5.25894L116.55 12.6509ZM118.366 12.0762C119.384 11.8615 120.856 11.7071 122.858 11.7071L126.442 2.37129C123.98 2.37129 121.627 2.55296 119.458 3.01046L118.366 12.0762ZM122.858 11.7071C124.864 11.7071 126.196 11.8622 127.013 12.0719L132.915 3.0148C131.111 2.55227 128.9 2.37129 126.442 2.37129L122.858 11.7071ZM127.03 12.0762C127.991 12.318 128.288 12.5666 128.33 12.6104L137.355 5.29942C136.23 4.13327 134.608 3.44079 132.898 3.01046L127.03 12.0762ZM128.37 12.6509C128.402 12.683 128.42 12.7061 128.428 12.7185C128.436 12.7306 128.437 12.7339 128.434 12.7277C128.432 12.7213 128.428 12.7095 128.425 12.6932C128.422 12.677 128.421 12.6619 128.421 12.6504L139.043 9.62854C139.074 7.8246 138.426 6.36446 137.315 5.25894L128.37 12.6509ZM128.421 12.7914C128.426 13.0142 128.379 13.3724 128.165 13.929H138.165C138.743 12.4243 139.073 10.9228 139.042 9.48755L128.421 12.7914ZM128.165 13.929L123.766 25.3897H133.766L138.165 13.929H128.165ZM110.046 24.1797C109.363 25.9592 109.532 27.5643 110.426 28.7349L119.869 21.9099C120.044 22.1388 120.201 22.4726 120.24 22.9173C120.28 23.3648 120.19 23.8052 120.046 24.1797H110.046ZM110.519 28.8499C111.336 29.8087 112.568 30.1132 113.226 30.2373C114.005 30.3843 114.86 30.4273 115.672 30.4273L119.256 21.0914C118.772 21.0914 118.592 21.0616 118.599 21.0629C118.61 21.0649 118.742 21.0894 118.932 21.1705C119.112 21.2479 119.462 21.4264 119.776 21.795L110.519 28.8499ZM115.672 30.4273C116.484 30.4273 117.372 30.3843 118.264 30.2373C119.017 30.1132 120.483 29.8087 122.036 28.8499L118.195 21.795C118.792 21.4264 119.279 21.2479 119.519 21.1705C119.771 21.0894 119.922 21.0649 119.934 21.0629C119.942 21.0616 119.74 21.0914 119.256 21.0914L115.672 30.4273ZM122.217 28.7349C124.01 27.5643 125.411 25.9592 126.094 24.1797H116.094C116.238 23.8052 116.486 23.3648 116.869 22.9173C117.25 22.4726 117.664 22.1388 118.014 21.9099L122.217 28.7349ZM126.094 24.1797L129.565 15.1389H119.565L116.094 24.1797H126.094ZM129.565 15.1389C130.274 13.2919 130.031 11.6687 129.066 10.536L119.809 17.5909C119.613 17.3615 119.425 17.0133 119.368 16.532C119.31 16.0454 119.404 15.5584 119.565 15.1389H129.565ZM129.159 10.651C128.372 9.62111 127.127 9.27772 126.432 9.13587C125.63 8.97192 124.751 8.92503 123.926 8.92503L120.342 18.2608C120.813 18.2608 120.967 18.2924 120.932 18.2852C120.907 18.2801 120.758 18.249 120.557 18.1548C120.36 18.063 120.013 17.8652 119.716 17.476L129.159 10.651ZM123.926 8.92503C123.101 8.92503 122.186 8.97192 121.258 9.13587C120.455 9.27772 118.945 9.62111 117.368 10.651L121.571 17.476C120.975 17.8652 120.476 18.063 120.21 18.1548C119.935 18.249 119.763 18.2801 119.734 18.2852C119.694 18.2924 119.872 18.2608 120.342 18.2608L123.926 8.92503ZM117.549 10.536C115.714 11.6687 114.226 13.2919 113.517 15.1389H123.517C123.356 15.5584 123.075 16.0454 122.644 16.532C122.218 17.0133 121.762 17.3615 121.39 17.5909L117.549 10.536ZM113.517 15.1389L110.046 24.1797H120.046L123.517 15.1389H113.517ZM131.302 31.4729L126.374 34.574L126.491 34.7793L126.641 34.9617L131.302 31.4729ZM140.371 7.84581L138.103 4.54511L138.103 4.54511L140.371 7.84581ZM146.314 7.74498L142.592 11.9832L142.644 12.0102L142.697 12.0355L146.314 7.74498ZM147.015 8.45077L142.063 11.5079L142.067 11.5152L142.071 11.5224L147.015 8.45077ZM151.135 15.9119L146.191 18.9835L151.361 28.3474L156.135 15.9119H151.135ZM161.899 7.84581L156.972 10.947L157.088 11.1522L157.238 11.3346L161.899 7.84581ZM152.83 31.4729L150.561 28.1722L150.561 28.1722L152.83 31.4729ZM145.45 31.4729L140.522 34.5741L140.639 34.7793L140.789 34.9617L145.45 31.4729ZM147.11 26.3979H152.11L152.754 24.7192L152.106 23.425L147.11 26.3979ZM143.624 19.4409L148.62 16.468L143.607 6.46095L138.624 19.4409H143.624ZM138.682 31.4729L136.413 28.1722L136.413 28.1722L138.682 31.4729ZM139.398 27.0738H133.998L130.415 36.4096H135.815L139.398 27.0738ZM133.998 27.0738C134.093 27.0738 135.212 27.0701 135.963 27.984L126.641 34.9617C127.685 36.2341 129.407 36.4096 130.415 36.4096L133.998 27.0738ZM136.229 28.3717C136.813 29.3998 136.409 30.443 136.375 30.5318H126.375C126.014 31.4721 125.561 33.1426 126.374 34.574L136.229 28.3717ZM136.375 30.5318L144.735 8.75325H134.735L126.375 30.5318H136.375ZM144.735 8.75325C144.7 8.84367 144.582 9.13359 144.301 9.5332C144.01 9.94825 143.482 10.5674 142.64 11.1465L138.103 4.54511C135.936 6.03441 135.069 7.88216 134.735 8.75325H144.735ZM142.64 11.1465C141.15 12.1707 139.927 12.2112 139.704 12.2112L143.287 2.87543C142.152 2.87543 140.18 3.11766 138.103 4.54511L142.64 11.1465ZM139.704 12.2112H143.448L147.031 2.87543H143.287L139.704 12.2112ZM143.448 12.2112C143.405 12.2112 143.028 12.2085 142.592 11.9832L150.036 3.50671C149.079 3.01263 147.985 2.87543 147.031 2.87543L143.448 12.2112ZM142.697 12.0355C142.243 11.8207 142.086 11.5498 142.063 11.5079L151.967 5.39362C151.578 4.67954 150.954 3.93812 149.931 3.45451L142.697 12.0355ZM142.071 11.5224L146.191 18.9835L156.079 12.8404L151.959 5.37918L142.071 11.5224ZM156.135 15.9119L158.883 8.75325H148.883L146.135 15.9119H156.135ZM158.883 8.75325C158.848 8.84367 158.73 9.1336 158.449 9.5332C158.158 9.94825 157.63 10.5674 156.788 11.1465L152.251 4.5451C150.084 6.03441 149.217 7.88216 148.883 8.75325H158.883ZM156.788 11.1465C155.298 12.1707 154.075 12.2112 153.852 12.2112L157.435 2.87543C156.3 2.87543 154.328 3.11766 152.251 4.5451L156.788 11.1465ZM153.852 12.2112H159.252L162.835 2.87543H157.435L153.852 12.2112ZM159.252 12.2112C159.093 12.2112 157.681 12.1955 156.972 10.947L166.827 4.74463C165.888 3.09279 163.906 2.87543 162.835 2.87543L159.252 12.2112ZM157.238 11.3346C156.327 10.2248 156.818 8.90113 156.875 8.75325H166.875C167.259 7.75394 167.766 5.82527 166.56 4.35698L157.238 11.3346ZM156.875 8.75325L148.515 30.5318H158.515L166.875 8.75325H156.875ZM148.515 30.5318C148.595 30.3236 149.071 29.1963 150.561 28.1722L155.098 34.7736C157.175 33.3461 158.108 31.5915 158.515 30.5318H148.515ZM150.561 28.1722C151.404 27.593 152.171 27.3219 152.663 27.1989C153.136 27.0805 153.449 27.0738 153.546 27.0738L149.963 36.4096C150.896 36.4096 152.931 36.2629 155.098 34.7736L150.561 28.1722ZM153.546 27.0738H148.146L144.563 36.4096H149.963L153.546 27.0738ZM148.146 27.0738C148.241 27.0738 149.36 27.0701 150.111 27.984L140.789 34.9617C141.833 36.2341 143.555 36.4096 144.563 36.4096L148.146 27.0738ZM150.377 28.3717C150.961 29.3998 150.557 30.443 150.523 30.5318H140.523C140.162 31.4721 139.709 33.1426 140.522 34.5741L150.377 28.3717ZM150.523 30.5318L152.11 26.3979H142.11L140.523 30.5318H150.523ZM152.106 23.425L148.62 16.468L138.628 22.4138L142.114 29.3708L152.106 23.425ZM138.624 19.4409L134.367 30.5318H144.367L148.624 19.4409H138.624ZM134.367 30.5318C134.447 30.3236 134.923 29.1963 136.413 28.1722L140.95 34.7736C143.027 33.3461 143.96 31.5915 144.367 30.5318H134.367ZM136.413 28.1722C137.256 27.593 138.023 27.3219 138.515 27.1989C138.988 27.0805 139.301 27.0738 139.398 27.0738L135.815 36.4096C136.748 36.4096 138.783 36.2629 140.95 34.7736L136.413 28.1722ZM173.992 14.6012L170.15 12.7054L169.933 12.9581L169.744 13.2222L173.992 14.6012ZM170.339 19.7097L166.091 18.3308L161.767 24.3777H168.547L170.339 19.7097ZM175.991 19.7097L174.199 24.3777H180.978L181.297 18.3308L175.991 19.7097ZM176.26 14.6012L181.566 13.2222L181.58 12.9581L181.556 12.7054L176.26 14.6012ZM176.103 14.1643L171.301 17.465L171.426 17.6478L171.581 17.8093L176.103 14.1643ZM174.447 14.1643L172.723 10.5193L172.445 10.6808L172.179 10.8636L174.447 14.1643ZM165.139 31.4729L162.871 28.1722L162.871 28.1722L165.139 31.4729ZM157.867 31.4729L152.94 34.574L153.056 34.7793L153.206 34.9617L157.867 31.4729ZM162.56 19.3401L158.162 18.1807L158.126 18.2354L158.091 18.2904L162.56 19.3401ZM164.814 16.2816L168.838 17.9573L168.842 17.9522L164.814 16.2816ZM170.875 8.65242L174.903 10.323L174.949 10.2648L174.994 10.206L170.875 8.65242ZM171.846 7.8122L170.751 3.83675L170.657 3.88121L170.563 3.92826L171.846 7.8122ZM183.834 7.8122L179.569 11.6961L179.627 11.7432L179.687 11.7877L183.834 7.8122ZM184.195 8.65242L178.884 10.206L178.883 10.2648L178.885 10.323L184.195 8.65242ZM184.398 16.2816L179.088 17.9522L179.089 17.9573L184.398 16.2816ZM184.268 19.3401L178.994 20.3897L178.986 20.4447L178.98 20.4994L184.268 19.3401ZM179.647 31.4729L181.916 34.7736L181.916 34.7736L179.647 31.4729ZM172.159 31.4729L167.357 34.7736L167.482 34.9564L167.636 35.1179L172.159 31.4729ZM174.003 25.8266H179.003L180.794 21.1587H175.794L174.003 25.8266ZM167.631 25.8266L169.422 21.1587H164.422L162.631 25.8266H167.631ZM169.744 13.2222L166.091 18.3308L174.586 21.0887L178.239 15.9801L169.744 13.2222ZM168.547 24.3777H174.199L177.782 15.0418H172.13L168.547 24.3777ZM181.297 18.3308L181.566 13.2222L170.953 15.9801L170.684 21.0887L181.297 18.3308ZM181.556 12.7054C181.506 12.1549 181.333 11.2601 180.626 10.5192L171.581 17.8093C171.299 17.5141 171.153 17.2136 171.076 16.9978C170.998 16.7808 170.972 16.6008 170.963 16.497L181.556 12.7054ZM180.906 10.8636C180.203 9.84133 178.968 9.36194 177.587 9.36194L174.003 18.6977C173.511 18.6977 172.969 18.6195 172.459 18.3975C171.945 18.1733 171.561 17.8442 171.301 17.465L180.906 10.8636ZM177.587 9.36194H176.687L173.103 18.6977H174.003L177.587 9.36194ZM176.687 9.36194C175.328 9.36194 173.936 9.81523 172.723 10.5193L176.172 17.8093C175.267 18.3341 174.174 18.6977 173.103 18.6977L176.687 9.36194ZM172.179 10.8636C171.177 11.5524 170.491 12.3094 170.15 12.7054L177.833 16.497C177.801 16.5346 177.707 16.641 177.555 16.7872C177.412 16.9244 177.129 17.1808 176.716 17.465L172.179 10.8636ZM160.824 30.5318C160.904 30.3236 161.38 29.1963 162.871 28.1722L167.408 34.7736C169.485 33.3461 170.418 31.5915 170.824 30.5318H160.824ZM162.871 28.1722C163.713 27.593 164.481 27.3219 164.972 27.1989C165.446 27.0805 165.759 27.0738 165.856 27.0738L162.272 36.4096C163.205 36.4096 165.241 36.2629 167.408 34.7736L162.871 28.1722ZM165.856 27.0738H160.564L156.98 36.4096H162.272L165.856 27.0738ZM160.564 27.0738C160.659 27.0738 161.778 27.0701 162.528 27.984L153.206 34.9617C154.251 36.2341 155.973 36.4096 156.98 36.4096L160.564 27.0738ZM162.795 28.3717C163.379 29.3998 162.974 30.443 162.94 30.5318H152.94C152.579 31.4721 152.126 33.1426 152.94 34.574L162.795 28.3717ZM162.94 30.5318L166.346 21.6591H156.346L152.94 30.5318H162.94ZM166.346 21.6591C166.432 21.435 166.628 21.0259 167.03 20.3897L158.091 18.2904C157.39 19.4019 156.776 20.5388 156.346 21.6591H166.346ZM166.959 20.4994C167.385 19.8527 167.998 19.0125 168.838 17.9573L160.791 14.606C159.776 15.881 158.887 17.0797 158.162 18.1807L166.959 20.4994ZM168.842 17.9522L174.903 10.323L166.847 6.98189L160.787 14.6111L168.842 17.9522ZM174.994 10.206C174.742 10.5358 174.14 11.1879 173.128 11.6961L170.563 3.92826C168.838 4.79497 167.588 6.00722 166.756 7.09885L174.994 10.206ZM172.94 11.7877C172.104 12.1813 171.509 12.2112 171.345 12.2112L174.929 2.87543C173.804 2.87543 172.349 3.08464 170.751 3.83675L172.94 11.7877ZM171.345 12.2112H181.029L184.613 2.87543H174.929L171.345 12.2112ZM181.029 12.2112C180.806 12.2112 180.145 12.1673 179.569 11.6961L188.098 3.92828C187.083 3.0986 185.747 2.87543 184.613 2.87543L181.029 12.2112ZM179.687 11.7877C179.039 11.3098 178.881 10.6421 178.884 10.206L189.506 7.09886C189.513 5.90096 189.115 4.6731 187.98 3.83674L179.687 11.7877ZM178.885 10.323L179.088 17.9522L189.709 14.6111L189.505 6.98189L178.885 10.323ZM179.089 17.9573C179.118 18.9911 179.075 19.793 178.994 20.3897L189.543 18.2904C189.701 17.1394 189.745 15.9024 189.708 14.606L179.089 17.9573ZM178.98 20.4994C178.913 21.1146 178.805 21.4851 178.738 21.6591H188.738C189.188 20.4887 189.433 19.3132 189.557 18.1807L178.98 20.4994ZM178.738 21.6591L175.332 30.5318H185.332L188.738 21.6591H178.738ZM175.332 30.5318C175.412 30.3236 175.888 29.1963 177.379 28.1722L181.916 34.7736C183.993 33.3461 184.926 31.5915 185.332 30.5318H175.332ZM177.379 28.1722C178.221 27.593 178.989 27.3219 179.48 27.1989C179.954 27.0805 180.267 27.0738 180.364 27.0738L176.78 36.4096C177.713 36.4096 179.749 36.2629 181.916 34.7736L177.379 28.1722ZM180.364 27.0738H174.928L171.344 36.4096H176.78L180.364 27.0738ZM174.928 27.0738C175.005 27.0738 175.243 27.0794 175.551 27.1642C175.868 27.2514 176.309 27.4373 176.682 27.8278L167.636 35.1179C168.709 36.2407 170.33 36.4096 171.344 36.4096L174.928 27.0738ZM176.962 28.1722C177.666 29.1963 177.276 30.3236 177.196 30.5318H167.196C166.79 31.5915 166.376 33.3461 167.357 34.7736L176.962 28.1722ZM177.196 30.5318L179.003 25.8266H169.003L167.196 30.5318H177.196ZM175.794 21.1587H169.422L165.839 30.4945H172.211L175.794 21.1587ZM162.631 25.8266L160.824 30.5318H170.824L172.631 25.8266H162.631Z" fill="white" mask="url(#path-3-outside-2_85_25)"/>
</svg>
